<svg width="192" height="192" viewBox="0 0 192 192" fill="none" xmlns="http://www.w3.org/2000/svg">
<g clip-path="url(#clip0_154_124)">
<path fill-rule="evenodd" clip-rule="evenodd" d="M170.308 73.7001C182.314 73.6077 192.025 83.2807 192 95.3112C191.972 107.339 182.218 117.163 170.215 117.257L117.567 117.625L117.2 170.428C117.102 182.355 107.297 192.014 95.3023 192C83.305 191.984 73.6639 182.299 73.7624 170.369L74.1265 117.93L21.69 118.298C9.68794 118.392 -0.0249529 108.718 4.81565e-05 96.6888C0.0281743 84.6614 9.78325 74.8366 21.7869 74.7442L74.4327 74.3748L74.8015 21.572C74.9015 9.64478 84.705 -0.0140737 96.6992 1.53939e-05C108.697 0.0141045 118.338 9.70114 118.238 21.6315L117.874 74.0695L170.308 73.7001Z" fill="#6D7887"/>
</g>
<defs>
<clipPath id="clip0_154_124">
<rect width="192" height="192" fill="white"/>
</clipPath>
</defs>
</svg>
