<svg width="83" height="92" viewBox="0 0 83 92" fill="none" xmlns="http://www.w3.org/2000/svg">
<path d="M41.4995 0L43.5985 1.07442C51.7404 5.24244 58.7124 11.3684 63.8975 18.8334C68.1762 16.7984 72.7578 15.2963 77.5557 14.4137L83 13.4122V50.4408C83 73.3925 64.42 92 41.5 92C18.5802 92 0 73.3939 0 50.4417V13.4122L5.44415 14.4137C10.242 15.2962 14.8233 16.7982 19.1017 18.8331C24.287 11.3682 31.2588 5.24235 39.4006 1.07442L41.4995 0ZM27.1021 23.4986C32.7726 27.4763 37.6631 32.4919 41.5 38.2721C45.3374 32.4922 50.2288 27.4761 55.8973 23.4991C52.0834 18.1925 47.1726 13.7286 41.4995 10.4417C35.827 13.7285 30.916 18.1922 27.1021 23.4986ZM36.4245 47.8272C32.3617 39.915 26.0801 33.3255 18.4035 28.8883C15.5242 27.224 12.4495 25.8629 9.22222 24.848V50.4417C9.22222 65.6336 19.6876 78.3772 33.7925 81.8376C32.8021 77.6873 32.2778 73.3583 32.2778 68.9111C32.2778 61.4459 33.7524 54.326 36.4245 47.8272ZM43.5893 82.6983C60.442 81.6201 73.7778 67.5896 73.7778 50.4408V24.848C70.55 25.863 67.4753 27.2242 64.5961 28.8886C50.7808 36.8743 41.5 51.8104 41.5 68.9111C41.5 73.7194 42.2322 78.349 43.5893 82.6983Z" fill="black"/>
</svg>
