<svg width="83" height="92" viewBox="0 0 83 92" fill="none" xmlns="http://www.w3.org/2000/svg">
<path d="M43.5981 1.07441L41.4991 0L39.4006 1.07441C34.1001 3.78772 29.2952 7.33094 25.1562 11.5336C31.2353 14.7026 36.7473 18.8119 41.5005 23.669C46.2531 18.8124 51.7648 14.7034 57.8432 11.5345C53.7038 7.33145 48.8985 3.78791 43.5981 1.07441ZM35.5023 30.7443C27.6171 22.436 17.1822 16.5735 5.44415 14.4144L0 13.413V50.4421C0 68.0096 10.8852 83.0314 26.27 89.1122C24.184 82.7566 23.0556 75.9661 23.0556 68.9114C23.0556 54.6353 27.6766 41.4403 35.5023 30.7443ZM83 13.413L77.5557 14.4144C51.7966 19.1526 32.2778 41.7455 32.2778 68.9123C32.2778 76.0048 33.6109 82.7968 36.0437 89.0429L37.1513 91.8855C38.6001 91.9307 40.0503 92 41.5 92C64.42 92 83 73.3941 83 50.4421V13.413Z" fill="black"/>
</svg>
