<svg width="11" height="10" viewBox="0 0 11 10" fill="none" xmlns="http://www.w3.org/2000/svg">
<path fill-rule="evenodd" clip-rule="evenodd" d="M4.17675 0.769231C4.76486 -0.25641 6.23514 -0.25641 6.82325 0.769231L10.793 7.69231C11.3811 8.71795 10.646 10 9.46976 10H1.53024C0.354016 10 -0.381125 8.71795 0.206987 7.69231L4.17675 0.769231ZM5.94108 1.28205C5.74505 0.940171 5.25495 0.940171 5.05892 1.28205L1.08916 8.20513C0.893119 8.54701 1.13817 8.97436 1.53024 8.97436H9.46976C9.86183 8.97436 10.1069 8.54701 9.91084 8.20513L5.94108 1.28205Z" fill="#FF7A67"/>
<path d="M5.94928 3L5.86232 6.4932H5.11594L5.02536 3H5.94928ZM5 7.56463C5 7.43991 5.04348 7.3356 5.13043 7.2517C5.21981 7.16553 5.343 7.12245 5.5 7.12245C5.65459 7.12245 5.77657 7.16553 5.86594 7.2517C5.95531 7.3356 6 7.43991 6 7.56463C6 7.68481 5.95531 7.78798 5.86594 7.87415C5.77657 7.95805 5.65459 8 5.5 8C5.343 8 5.21981 7.95805 5.13043 7.87415C5.04348 7.78798 5 7.68481 5 7.56463Z" fill="#FF7A67"/>
</svg>
