<svg width="248" height="234" viewBox="0 0 248 234" fill="none" xmlns="http://www.w3.org/2000/svg">
<path d="M204.402 155.929L206.501 157.003L208.599 155.929C213.9 153.215 218.705 149.672 222.844 145.469C216.765 142.3 211.253 138.191 206.5 133.334C201.747 138.191 196.235 142.3 190.157 145.468C194.296 149.671 199.101 153.215 204.402 155.929ZM212.498 126.259C220.383 134.567 230.818 140.429 242.556 142.589L248 143.59L248 106.561C248 88.9934 237.115 73.9716 221.73 67.8907C223.816 74.2463 224.944 81.0369 224.944 88.0916C224.944 102.368 220.323 115.563 212.498 126.259ZM165 143.59L170.444 142.589C196.203 137.85 215.722 115.257 215.722 88.0906C215.722 80.9981 214.389 74.2061 211.956 67.96L210.849 65.1174C209.4 65.0722 207.95 65.0029 206.5 65.0029C183.58 65.0029 165 83.6088 165 106.561L165 143.59Z" fill="#FF7A67"/>
<path fill-rule="evenodd" clip-rule="evenodd" d="M146.686 0C110.971 0 82.0181 28.9528 82.0181 64.6678V232.003H93.0181V64.6678C93.0181 35.0279 117.046 11 146.686 11C174.412 11 197.228 32.0259 200.058 59.0029H211.109C208.24 25.9408 180.492 0 146.686 0Z" fill="#FF7A67"/>
<path d="M155.593 192.165L161.017 217.815L135.09 213.925C120.771 211.777 106.735 198.551 103.739 184.385C100.744 170.219 109.923 160.477 124.242 162.625C138.561 164.773 152.598 177.998 155.593 192.165Z" fill="#FF7A67"/>
<path d="M19.9218 192.491L14.4979 218.141L40.425 214.251C54.7441 212.103 68.7804 198.877 71.776 184.711C74.7714 170.545 65.592 160.803 51.2729 162.951C36.9538 165.099 22.9174 178.325 19.9218 192.491Z" fill="#FF7A67"/>
</svg>
