<svg width="13" height="13" viewBox="0 0 13 13" fill="none" xmlns="http://www.w3.org/2000/svg">
<path fill-rule="evenodd" clip-rule="evenodd" d="M0.869629 2.6523C0.391439 1.85989 0.119548 0.9124 0 0C0.798747 0.121125 1.61654 0.388279 2.46818 0.905608L2.44067 0.322623C3.04582 0.41658 3.8361 0.801463 4.75439 1.38784L4.75968 0.830895C5.37012 1.07994 5.98055 1.4784 6.59098 2.05686L6.79411 1.595C7.35588 1.91083 7.93774 2.46099 8.54077 3.25113L8.75448 2.76776C9.22843 3.17755 9.6241 3.77865 9.90552 4.65822L10.2282 4.31296C10.499 4.71029 10.7096 5.33063 10.8238 6.30869L11.2406 6.06418C11.3337 6.60528 11.2026 7.38636 10.9624 8.28292L11.4491 8.26141C11.2227 9.10589 10.9074 9.83377 10.4419 10.3692C11.1031 11.0677 11.9833 11.6348 13.0021 12.1216C12.9757 12.5155 12.8466 12.8053 12.6202 12.9977C11.4512 12.1465 10.3435 11.2284 9.26335 10.282C8.33553 9.43304 7.44157 8.56026 6.57829 7.66597C5.04427 6.07889 3.62451 4.44314 2.28516 2.66928C1.88737 2.14289 1.50122 1.60859 1.12882 1.06635C1.14998 1.41162 2.21216 3.03265 2.96647 4.04354C4.93953 6.69018 7.24373 9.00853 9.5564 11.3042C8.95231 11.834 8.34294 12.1431 7.72616 12.2166V11.731C6.9856 11.9959 6.26725 12.1838 5.65576 12.005L5.88957 11.551C5.2474 11.5273 4.54598 11.3065 4.0022 10.9567L4.33862 10.565C3.62028 10.3364 3.01302 9.96848 2.60466 9.35153L3.0437 9.13192C2.42798 8.60667 1.83553 8.05991 1.49276 7.26977L1.93921 7.04336C1.39966 6.37208 0.974365 5.71778 0.797689 5.10197L1.33195 5.0782C0.784994 4.17259 0.422119 3.33716 0.315267 2.59683L0.869629 2.6523Z" fill="black"/>
</svg>
