<svg width="78" height="49" viewBox="0 0 78 49" fill="none" xmlns="http://www.w3.org/2000/svg">
<path d="M35.9318 22.2239L57.1015 13.7344L37.6802 24.8979C40.9053 28.0097 44.6797 29.6426 48.9561 29.9265C57.7749 30.5122 65.9084 26.5781 71.3544 19.7391C72.3822 18.4494 73.28 17.0059 74.0656 15.4973C75.0225 13.6634 78.4425 7.50479 77.9522 6.03169C77.2257 3.88417 67.1547 2.39925 64.8511 2.0857C52.8841 0.441041 38.2532 2.43474 35.0045 16.5267C34.8509 17.2189 34.8155 17.917 34.8686 18.6269L34.1953 19.0647L33.5573 18.5973C33.6755 18.1063 33.7404 17.6034 33.7286 17.1006C33.4333 4.94905 21.7203 0.8374 11.5903 0.162972C9.64105 0.0387352 1.09995 -0.446367 0.143062 1.19829C-0.512583 2.32234 1.27124 7.97806 1.74378 9.64639C2.13953 11.0189 2.63569 12.3618 3.2618 13.6042C6.59318 20.1473 12.6299 24.7678 19.9896 25.7735C23.5573 26.2645 26.9359 25.5546 30.1196 23.5431L16.0085 11.0662L31.2478 21.017L31.2419 21.1235C31.9566 23.62 32.1811 26.2113 32.0039 28.9681C29.4935 29.3586 26.7942 31.0328 26.6701 33.5649C17.9046 27.637 9.40479 40.6227 10.2731 48.9998H60.0291C59.1431 39.901 48.9148 33.6418 42.3524 37.1382C44.8155 30.3052 39.594 28.8557 35.861 29.8792C35.7487 29.7372 35.6188 29.613 35.4652 29.5065C35.1403 27.0277 35.164 24.5489 35.9318 22.2239Z" fill="black"/>
</svg>
