<svg width="115" height="112" viewBox="0 0 115 112" fill="none" xmlns="http://www.w3.org/2000/svg">
<path fill-rule="evenodd" clip-rule="evenodd" d="M62.3382 3.29848C59.6168 0.632435 55.263 0.632257 52.5414 3.29807L2.86946 51.9513C-0.523987 55.2751 0.308043 60.9417 4.51374 63.1498L6.31149 64.0936C9.08031 65.5473 12.4775 64.9881 14.6343 62.7236L52.0141 23.4768C54.7565 20.5974 59.3438 20.5779 62.1106 23.4339L100.246 62.7982C102.406 65.0284 105.778 65.5687 108.527 64.1253L110.367 63.1594C114.572 60.9514 115.405 55.2853 112.012 51.9613L62.3382 3.29848ZM14.26 71.0289C14.26 69.1727 14.9973 67.3925 16.3097 66.0797L52.5422 29.8388C55.2789 27.1015 59.7177 27.1048 62.4503 29.8463L98.5678 66.081C99.8756 67.3931 100.61 69.1702 100.61 71.0227V103.56C100.61 107.426 97.476 110.56 93.61 110.56H76.12C72.254 110.56 69.12 107.426 69.12 103.56V87.5899C69.12 83.7239 65.986 80.5899 62.12 80.5899H52.49C48.624 80.5899 45.49 83.7239 45.49 87.5899V103.56C45.49 107.426 42.356 110.56 38.49 110.56H21.26C17.394 110.56 14.26 107.426 14.26 103.56V71.0289Z" fill="#6D7887"/>
</svg>
