<svg width="84" height="93" viewBox="0 0 84 93" fill="none" xmlns="http://www.w3.org/2000/svg">
<g clip-path="url(#clip0_154_122)">
<path d="M44.0981 1.57441L41.9991 0.5L39.9006 1.57441C34.6001 4.28772 29.7952 7.83094 25.6562 12.0336C31.7353 15.2026 37.2473 19.3119 42.0005 24.169C46.7531 19.3124 52.2648 15.2034 58.3432 12.0345C54.2038 7.83145 49.3985 4.28791 44.0981 1.57441ZM36.0023 31.2443C28.1171 22.936 17.6822 17.0735 5.94415 14.9144L0.5 13.913V50.9421C0.5 68.5096 11.3852 83.5314 26.77 89.6122C24.684 83.2566 23.5556 76.4661 23.5556 69.4114C23.5556 55.1353 28.1766 41.9403 36.0023 31.2443ZM83.5 13.913L78.0557 14.9144C52.2966 19.6526 32.7778 42.2455 32.7778 69.4123C32.7778 76.5048 34.1109 83.2968 36.5437 89.5429L37.6513 92.3855C39.1001 92.4307 40.5503 92.5 42 92.5C64.92 92.5 83.5 73.8941 83.5 50.9421V13.913Z" fill="#6D7887"/>
</g>
<defs>
<clipPath id="clip0_154_122">
<rect width="83" height="92" fill="white" transform="translate(0.5 0.5)"/>
</clipPath>
</defs>
</svg>
