<svg width="87" height="87" viewBox="0 0 87 87" fill="none" xmlns="http://www.w3.org/2000/svg">
<path d="M69.6536 39.5436L71.5518 37.6454L65.8571 31.9506L55.4252 21.5187L49.7305 15.824L47.8322 17.7222L44.0357 21.5187L10.573 54.9815C8.8259 56.7285 7.54921 58.8956 6.84367 61.2642L0.896972 81.4897C0.477007 82.9007 0.863374 84.4294 1.92169 85.4709C2.98 86.5124 4.49187 86.8988 5.90295 86.4956L26.1116 80.5489C28.4802 79.8434 30.6473 78.5667 32.3943 76.8196L65.8571 43.3569L69.6536 39.5436ZM27.6067 67.8324L26.078 71.6457C25.4061 72.1664 24.6502 72.5528 23.8438 72.8048L10.7073 76.6685L14.571 63.5488C14.8062 62.7256 15.2094 61.9697 15.7301 61.3146L19.5434 59.7859V65.1614C19.5434 66.6397 20.7529 67.8492 22.2312 67.8492H27.6067V67.8324ZM61.6574 3.8802L59.2384 6.316L55.442 10.1125L53.5269 12.0107L59.2217 17.7054L69.6536 28.1374L75.3483 33.8321L77.2465 31.9338L81.043 28.1374L83.4788 25.7016C87.6785 21.5019 87.6785 14.6985 83.4788 10.4988L76.877 3.8802C72.6773 -0.319443 65.8739 -0.319443 61.6742 3.8802H61.6574ZM53.6949 32.1018L29.505 56.2918C28.4634 57.3333 26.75 57.3333 25.7085 56.2918C24.667 55.2503 24.667 53.5368 25.7085 52.4953L49.8984 28.3053C50.94 27.2638 52.6534 27.2638 53.6949 28.3053C54.7364 29.3469 54.7364 31.0603 53.6949 32.1018Z" fill="#6D7887"/>
</svg>
