<svg width="15" height="15" viewBox="0 0 15 15" fill="none" xmlns="http://www.w3.org/2000/svg">
<path d="M10.3297 12.6319C12.1914 14.4956 14.263 11.9278 12.8176 10.4892L11.4589 9.13588H13.384C15.5387 9.13588 15.5387 5.8628 13.384 5.8628H11.4589L12.8176 4.49973C14.3411 2.97952 12.0229 0.665098 10.4982 2.18531L9.13947 3.54351V1.62254C9.13947 -0.549364 5.85931 -0.532311 5.85931 1.62254V3.54351L4.49939 2.18531C2.97467 0.665098 0.65646 2.97952 2.17996 4.49973L3.53988 5.85793H1.61597C-0.538657 5.85793 -0.538657 9.13588 1.61597 9.13588H3.53988L2.17996 10.4892C0.65646 12.0094 2.97467 14.3238 4.49939 12.8036L5.85931 11.4503V13.3713C5.85931 15.4421 9.13825 15.7088 9.13825 13.1752L9.21882 11.7293L10.3285 12.638L10.3297 12.6319ZM7.5 5.79459C7.83655 5.79459 8.16556 5.8941 8.44547 6.08055C8.72539 6.267 8.94366 6.53203 9.07273 6.84218C9.2018 7.15233 9.23588 7.49368 9.17066 7.82314C9.10545 8.1526 8.94386 8.45539 8.70631 8.69328C8.46876 8.93117 8.16589 9.09348 7.83596 9.15974C7.50602 9.22599 7.16381 9.19321 6.85253 9.06553C6.54125 8.93785 6.27487 8.72099 6.08701 8.44235C5.89916 8.16371 5.79826 7.83577 5.79705 7.49995C5.79625 7.27629 5.8397 7.05467 5.92492 6.8478C6.01015 6.64093 6.13546 6.45288 6.29367 6.29445C6.45188 6.13601 6.63989 6.0103 6.8469 5.92452C7.05391 5.83874 7.27585 5.79459 7.5 5.79459Z" fill="black"/>
</svg>
