<svg width="129" height="128" viewBox="0 0 129 128" fill="none" xmlns="http://www.w3.org/2000/svg">
<path d="M31.8962 13.6986C30.7657 11.7508 31.4344 9.25093 33.3823 8.12044C35.3301 6.98994 37.8299 7.65338 38.9604 9.60653L44.2042 18.6823C45.3347 20.6302 44.666 23.13 42.7181 24.2605C40.7703 25.391 38.2705 24.7275 37.14 22.7744L31.8962 13.6986ZM61.2518 4.09206C61.2518 1.83108 63.0829 0 65.3439 0C67.6049 0 69.436 1.83108 69.436 4.09206V14.5743C69.436 16.8353 67.6049 18.6664 65.3439 18.6664C63.0829 18.6664 61.2518 16.8353 61.2518 14.5743V4.09206ZM91.4991 10.4663C92.619 8.5185 95.1082 7.84445 97.0614 8.96433C99.0092 10.0842 99.6833 12.5734 98.5634 14.5266L93.3196 23.6023C92.1997 25.5502 89.7105 26.2242 87.7574 25.1044C85.8095 23.9845 85.1355 21.4953 86.2554 19.5421L91.4991 10.4663ZM114.491 31.0859C116.439 29.9554 118.939 30.6241 120.069 32.572C121.2 34.5198 120.536 37.0196 118.583 38.1501L109.507 43.3939C107.56 44.5244 105.06 43.8557 103.929 41.9078C102.799 39.96 103.462 37.4602 105.415 36.3297L114.491 31.0859ZM124.098 60.4415C126.359 60.4415 128.19 62.2726 128.19 64.5336C128.19 66.7946 126.359 68.6257 124.098 68.6257H113.615C111.354 68.6257 109.523 66.7946 109.523 64.5336C109.523 62.2726 111.354 60.4415 113.615 60.4415H124.098ZM117.723 90.6888C119.671 91.8087 120.345 94.2979 119.225 96.2511C118.106 98.1989 115.616 98.873 113.663 97.7531L104.587 92.5093C102.64 91.3894 101.965 88.9002 103.085 86.9471C104.205 84.9992 106.694 84.3252 108.648 85.4451L117.723 90.6888ZM97.1038 113.681C98.2343 115.629 97.5656 118.128 95.6177 119.259C93.6699 120.389 91.1701 119.726 90.0396 117.773L84.7958 108.697C83.6653 106.749 84.334 104.249 86.2819 103.119C88.2297 101.988 90.7296 102.652 91.86 104.605L97.1038 113.681ZM67.7482 123.287C67.7482 125.548 65.9171 127.379 63.6561 127.379C61.3951 127.379 59.5641 125.548 59.5641 123.287V112.805C59.5641 110.544 61.3951 108.713 63.6561 108.713C65.9171 108.713 67.7482 110.544 67.7482 112.805V123.287ZM37.5009 116.913C36.381 118.861 33.8918 119.535 31.9386 118.415C29.9908 117.295 29.3168 114.806 30.4366 112.853L35.6804 103.777C36.8003 101.829 39.2895 101.155 41.2426 102.275C43.1905 103.395 43.8645 105.884 42.7447 107.837L37.5009 116.913ZM14.5089 96.2935C12.5611 97.424 10.0612 96.7553 8.93074 94.8074C7.80025 92.8596 8.46368 90.3598 10.4168 89.2293L19.4926 83.9855C21.4405 82.855 23.9403 83.5237 25.0708 85.4716C26.2013 87.4194 25.5378 89.9193 23.5847 91.0497L14.5089 96.2935ZM4.90237 66.9379C2.64138 66.9379 0.810303 65.1068 0.810303 62.8458C0.810303 60.5848 2.64138 58.7538 4.90237 58.7538H15.3846C17.6456 58.7538 19.4767 60.5848 19.4767 62.8458C19.4767 65.1068 17.6456 66.9379 15.3846 66.9379H4.90237ZM11.2766 36.6906C9.3288 35.5707 8.65475 33.0815 9.77463 31.1283C10.8945 29.1805 13.3837 28.5065 15.3369 29.6263L24.4126 34.8701C26.3605 35.99 27.0345 38.4792 25.9147 40.4323C24.7948 42.3802 22.3056 43.0542 20.3524 41.9344L11.2766 36.6906Z" fill="black"/>
<path d="M64.2417 27.6914C74.3312 27.6914 83.46 31.7782 90.0732 38.3913C96.681 45.0044 100.773 54.1386 100.773 64.2228C100.773 74.3123 96.6863 83.4411 90.0732 90.0542C83.46 96.6674 74.3312 100.754 64.2417 100.754C54.1522 100.754 45.0233 96.6674 38.4102 90.0542C31.8024 83.4411 27.7103 74.3123 27.7103 64.2228C27.7103 54.1332 31.7971 45.0044 38.4102 38.3913C45.0233 31.7835 54.1575 27.6914 64.2417 27.6914ZM84.5534 43.9111C79.3574 38.715 72.1764 35.4987 64.2417 35.4987C56.307 35.4987 49.126 38.715 43.93 43.9111C38.734 49.1071 35.5176 56.2881 35.5176 64.2228C35.5176 72.1574 38.734 79.3384 43.93 84.5345C49.126 89.7305 56.307 92.9468 64.2417 92.9468C72.1764 92.9468 79.3574 89.7305 84.5534 84.5345C89.7494 79.3384 92.9657 72.1574 92.9657 64.2228C92.9657 56.2881 89.7494 49.1071 84.5534 43.9111Z" fill="black"/>
<path d="M27.7103 64.224C27.7103 84.4004 44.0665 100.757 64.2429 100.757V27.6914C44.0665 27.6914 27.7103 44.0476 27.7103 64.224Z" fill="black"/>
</svg>
