<svg width="127" height="127" viewBox="0 0 127 127" fill="none" xmlns="http://www.w3.org/2000/svg">
<path d="M30.9933 13.6578C29.8662 11.7158 30.5329 9.22337 32.475 8.09625C34.417 6.96912 36.9094 7.63058 38.0365 9.57792L43.2647 18.6267C44.3918 20.5687 43.725 23.0611 41.783 24.1882C39.841 25.3153 37.3486 24.6539 36.2215 22.7065L30.9933 13.6578ZM63.5 27.0775C73.5595 27.0775 82.6611 31.152 89.2545 37.7455C95.8427 44.3389 99.9225 53.4458 99.9225 63.5C99.9225 73.5595 95.848 82.6611 89.2545 89.2545C82.6611 95.848 73.5595 99.9225 63.5 99.9225C53.4405 99.9225 44.3389 95.848 37.7455 89.2545C31.1573 82.6611 27.0775 73.5595 27.0775 63.5C27.0775 53.4405 31.152 44.3389 37.7455 37.7455C44.3389 31.1573 53.4458 27.0775 63.5 27.0775ZM60.2615 4.07988C60.2615 1.82563 62.0871 0 64.3414 0C66.5956 0 68.4213 1.82563 68.4213 4.07988V14.5309C68.4213 16.7852 66.5956 18.6108 64.3414 18.6108C62.0871 18.6108 60.2615 16.7852 60.2615 14.5309V4.07988ZM90.4187 10.4352C91.5352 8.49312 94.017 7.82108 95.9644 8.93762C97.9064 10.0542 98.5785 12.536 97.4619 14.4833L92.2338 23.532C91.1172 25.4741 88.6354 26.1461 86.6881 25.0296C84.746 23.913 84.074 21.4312 85.1905 19.4839L90.4187 10.4352ZM113.342 30.9933C115.284 29.8662 117.777 30.5329 118.904 32.475C120.031 34.417 119.369 36.9094 117.422 38.0365L108.373 43.2647C106.431 44.3918 103.939 43.725 102.812 41.783C101.685 39.841 102.346 37.3486 104.293 36.2215L113.342 30.9933ZM122.92 60.2615C125.174 60.2615 127 62.0871 127 64.3414C127 66.5956 125.174 68.4213 122.92 68.4213H112.469C110.215 68.4213 108.389 66.5956 108.389 64.3414C108.389 62.0871 110.215 60.2615 112.469 60.2615H122.92ZM116.565 90.4187C118.507 91.5352 119.179 94.017 118.062 95.9644C116.946 97.9064 114.464 98.5785 112.517 97.4619L103.468 92.2338C101.526 91.1172 100.854 88.6354 101.97 86.6881C103.087 84.746 105.569 84.074 107.516 85.1905L116.565 90.4187ZM96.0067 113.342C97.1338 115.284 96.4671 117.777 94.525 118.904C92.583 120.031 90.0906 119.369 88.9635 117.422L83.7353 108.373C82.6082 106.431 83.275 103.939 85.217 102.812C87.159 101.685 89.6514 102.346 90.7785 104.293L96.0067 113.342ZM66.7385 122.92C66.7385 125.174 64.9129 127 62.6586 127C60.4044 127 58.5788 125.174 58.5788 122.92V112.469C58.5788 110.215 60.4044 108.389 62.6586 108.389C64.9129 108.389 66.7385 110.215 66.7385 112.469V122.92ZM36.5813 116.565C35.4647 118.507 32.983 119.179 31.0356 118.062C29.0936 116.946 28.4215 114.464 29.5381 112.517L34.7662 103.468C35.8828 101.526 38.3646 100.854 40.3119 101.97C42.254 103.087 42.926 105.569 41.8095 107.516L36.5813 116.565ZM13.6578 96.0067C11.7158 97.1338 9.22337 96.4671 8.09625 94.525C6.96912 92.583 7.63058 90.0906 9.57792 88.9635L18.6267 83.7353C20.5687 82.6082 23.0611 83.275 24.1882 85.217C25.3153 87.159 24.6539 89.6514 22.7065 90.7785L13.6578 96.0067ZM4.07988 66.7385C1.82563 66.7385 0 64.9129 0 62.6586C0 60.4044 1.82563 58.5788 4.07988 58.5788H14.5309C16.7852 58.5788 18.6108 60.4044 18.6108 62.6586C18.6108 64.9129 16.7852 66.7385 14.5309 66.7385H4.07988ZM10.4352 36.5813C8.49312 35.4647 7.82108 32.983 8.93762 31.0356C10.0542 29.0936 12.536 28.4215 14.4833 29.5381L23.532 34.7662C25.4741 35.8828 26.1461 38.3646 25.0296 40.3119C23.913 42.254 21.4312 42.926 19.4839 41.8095L10.4352 36.5813Z" fill="black"/>
</svg>
