<svg width="129" height="128" viewBox="0 0 129 128" fill="none" xmlns="http://www.w3.org/2000/svg">
<path d="M31.9697 13.6986C30.8392 11.7508 31.5079 9.25093 33.4558 8.12044C35.4036 6.98995 37.9034 7.65338 39.0339 9.60653L44.2777 18.6823C45.4082 20.6302 44.7395 23.13 42.7916 24.2605C40.8438 25.391 38.3439 24.7275 37.2135 22.7744L31.9697 13.6986ZM64.5735 27.1584C74.663 27.1584 83.7919 31.2451 90.405 37.8582C97.0128 44.4713 101.105 53.6055 101.105 63.6897C101.105 73.7792 97.0181 82.9081 90.405 89.5212C83.7919 96.1343 74.663 100.221 64.5735 100.221C54.484 100.221 45.3551 96.1343 38.742 89.5212C32.1342 82.9081 28.0421 73.7792 28.0421 63.6897C28.0421 53.6002 32.1289 44.4713 38.742 37.8582C45.3551 31.2504 54.4893 27.1584 64.5735 27.1584ZM84.8852 43.378C79.6892 38.182 72.5082 34.9656 64.5735 34.9656C56.6388 34.9656 49.4578 38.182 44.2618 43.378C39.0658 48.574 35.8494 55.755 35.8494 63.6897C35.8494 71.6244 39.0658 78.8054 44.2618 84.0014C49.4578 89.1974 56.6388 92.4138 64.5735 92.4138C72.5082 92.4138 79.6892 89.1974 84.8852 84.0014C90.0812 78.8054 93.2975 71.6244 93.2975 63.6897C93.2975 55.755 90.0812 48.574 84.8852 43.378ZM61.3253 4.09206C61.3253 1.83108 63.1564 0 65.4174 0C67.6784 0 69.5094 1.83108 69.5094 4.09206V14.5743C69.5094 16.8353 67.6784 18.6664 65.4174 18.6664C63.1564 18.6664 61.3253 16.8353 61.3253 14.5743V4.09206ZM91.5726 10.4663C92.6925 8.5185 95.1817 7.84445 97.1349 8.96433C99.0827 10.0842 99.7567 12.5734 98.6369 14.5266L93.3931 23.6023C92.2732 25.5502 89.784 26.2242 87.8309 25.1044C85.883 23.9845 85.209 21.4953 86.3288 19.5421L91.5726 10.4663ZM114.565 31.0859C116.512 29.9554 119.012 30.6241 120.143 32.572C121.273 34.5198 120.61 37.0196 118.657 38.1501L109.581 43.3939C107.633 44.5244 105.133 43.8557 104.003 41.9078C102.872 39.96 103.536 37.4602 105.489 36.3297L114.565 31.0859ZM124.171 60.4415C126.432 60.4415 128.263 62.2726 128.263 64.5336C128.263 66.7946 126.432 68.6257 124.171 68.6257H113.689C111.428 68.6257 109.597 66.7946 109.597 64.5336C109.597 62.2726 111.428 60.4415 113.689 60.4415H124.171ZM117.797 90.6888C119.745 91.8087 120.419 94.2979 119.299 96.2511C118.179 98.1989 115.69 98.873 113.737 97.7531L104.661 92.5093C102.713 91.3894 102.039 88.9002 103.159 86.9471C104.279 84.9992 106.768 84.3252 108.721 85.445L117.797 90.6888ZM97.1773 113.681C98.3078 115.629 97.6391 118.128 95.6912 119.259C93.7434 120.389 91.2436 119.726 90.1131 117.773L84.8693 108.697C83.7388 106.749 84.4075 104.249 86.3554 103.119C88.3032 101.988 90.803 102.652 91.9335 104.605L97.1773 113.681ZM67.8217 123.287C67.8217 125.548 65.9906 127.379 63.7296 127.379C61.4686 127.379 59.6375 125.548 59.6375 123.287V112.805C59.6375 110.544 61.4686 108.713 63.7296 108.713C65.9906 108.713 67.8217 110.544 67.8217 112.805V123.287ZM37.5744 116.913C36.4545 118.861 33.9653 119.535 32.0121 118.415C30.0643 117.295 29.3902 114.806 30.5101 112.853L35.7539 103.777C36.8738 101.829 39.363 101.155 41.3161 102.275C43.264 103.395 43.938 105.884 42.8182 107.837L37.5744 116.913ZM14.5824 96.2935C12.6345 97.424 10.1347 96.7553 9.00423 94.8074C7.87373 92.8596 8.53717 90.3598 10.4903 89.2293L19.5661 83.9855C21.5139 82.855 24.0138 83.5237 25.1443 85.4716C26.2748 87.4194 25.6113 89.9192 23.6582 91.0497L14.5824 96.2935ZM4.97585 66.9379C2.71487 66.9379 0.883789 65.1068 0.883789 62.8458C0.883789 60.5848 2.71487 58.7538 4.97585 58.7538H15.4581C17.7191 58.7538 19.5502 60.5848 19.5502 62.8458C19.5502 65.1068 17.7191 66.9379 15.4581 66.9379H4.97585ZM11.3501 36.6906C9.40229 35.5707 8.72824 33.0815 9.84811 31.1283C10.968 29.1805 13.4572 28.5064 15.4103 29.6263L24.4861 34.8701C26.434 35.99 27.108 38.4792 25.9881 40.4323C24.8683 42.3802 22.3791 43.0542 20.4259 41.9344L11.3501 36.6906Z" fill="black"/>
</svg>
