<svg width="233" height="68" viewBox="0 0 233 68" fill="none" xmlns="http://www.w3.org/2000/svg">
<g filter="url(#filter0_d_154_343)">
<mask id="path-1-outside-1_154_343" maskUnits="userSpaceOnUse" x="1.72217" y="1.24805" width="224" height="59" fill="black">
<rect fill="white" x="1.72217" y="1.24805" width="224" height="59"/>
<path fill-rule="evenodd" clip-rule="evenodd" d="M34.1705 18.6826L34.1802 18.6187L44.6185 16.2927L34.7996 20.0196C35.9938 21.6048 37.7323 22.7074 39.688 23.1197C43.7479 24.0133 47.8048 22.7904 50.8095 20.0559C51.3839 19.5231 51.905 18.937 52.3657 18.3056C52.4232 18.2284 52.4953 18.1331 52.5782 18.0233L52.5785 18.023L52.5785 18.0229C53.3231 17.0377 54.9466 14.8895 54.8322 14.251C54.646 13.2167 50.0704 11.8249 49.0212 11.5189C43.573 9.91055 36.6369 9.78323 34.1422 16C34.0224 16.3037 33.9511 16.6241 33.9308 16.9498L33.587 17.1056L33.3244 16.8483C33.4159 16.6338 33.4777 16.408 33.5084 16.177C34.2189 10.5926 29.0631 7.88018 24.4016 6.85319C23.5048 6.65678 19.5676 5.82962 19.0101 6.51528C18.6672 6.93154 18.9732 9.12382 19.1185 10.1649C19.1365 10.2941 19.152 10.4055 19.1636 10.4937C19.245 11.1442 19.3886 11.7859 19.5926 12.4102C20.1032 14.0053 21.001 15.4548 22.2078 16.6323C23.4146 17.8098 24.8936 18.6796 26.5162 19.1659C28.1273 19.6555 29.8618 19.5477 31.3927 18.8627L25.6936 12.1541L32.0794 17.7861L32.0718 17.8355C31.8788 19.0997 31.643 20.447 31.4054 21.8047L31.4053 21.8049C31.1445 23.2952 30.8814 24.7981 30.6704 26.2173L25.6547 54.9691H27.3761H28.0479H40.2451L40.665 52.7228H28.4382L32.8443 27.3665C32.9894 26.5808 33.1286 25.7853 33.2691 24.9217L33.3593 24.4027H33.3524C33.5995 22.8419 33.8551 21.0382 34.1587 18.6808L34.1705 18.6826ZM62.6543 36.1724L61.6047 42.7854C61.3667 44.3529 60.9679 45.8854 60.408 47.3829C59.8482 48.8805 59.1064 50.224 58.1827 51.4137C57.259 52.6033 56.1254 53.541 54.7818 54.2268C53.4382 54.9126 51.8567 55.2345 50.0373 55.1925C48.3438 55.1505 46.9513 54.7586 45.8596 54.0168C44.782 53.2751 43.9562 52.3024 43.3824 51.0988C42.8086 49.8811 42.4517 48.5516 42.3117 47.11C42.1718 45.6685 42.1928 44.2269 42.3747 42.7854L43.4244 36.1515C43.6623 34.6119 44.0612 33.0934 44.621 31.5959C45.1948 30.0984 45.9436 28.7548 46.8673 27.5652C47.805 26.3615 48.9386 25.4168 50.2682 24.731C51.6118 24.0453 53.1793 23.7234 54.9707 23.7654C56.6782 23.8073 58.0778 24.1992 59.1694 24.941C60.2611 25.6827 61.0938 26.6554 61.6676 27.8591C62.2415 29.0627 62.5914 30.3853 62.7173 31.8268C62.8573 33.2684 62.8363 34.7169 62.6543 36.1724ZM59.2324 42.7854L60.2821 36.0675C60.422 34.9898 60.471 33.8702 60.429 32.7085C60.387 31.5469 60.1841 30.4762 59.8202 29.4965C59.4703 28.5029 58.8895 27.6911 58.0778 27.0613C57.28 26.4315 56.1954 26.0956 54.8238 26.0536C53.3683 26.0116 52.1157 26.2776 51.066 26.8514C50.0163 27.4112 49.1346 28.181 48.4208 29.1607C47.707 30.1403 47.1402 31.239 46.7203 32.4566C46.3005 33.6602 45.9996 34.8849 45.8176 36.1305L44.768 42.8274C44.628 43.905 44.579 45.0247 44.621 46.1863C44.677 47.3339 44.8799 48.4116 45.2298 49.4193C45.5937 50.413 46.1745 51.2317 46.9723 51.8755C47.784 52.5193 48.8687 52.8622 50.2262 52.9042C51.6958 52.9462 52.9554 52.6873 54.0051 52.1274C55.0547 51.5536 55.9364 50.7769 56.6502 49.7972C57.364 48.8035 57.9238 47.7048 58.3297 46.5012C58.7496 45.2836 59.0505 44.045 59.2324 42.7854ZM83.1994 42.7854L84.2491 36.1724C84.431 34.7169 84.452 33.2684 84.312 31.8268C84.1861 30.3853 83.8362 29.0627 83.2624 27.8591C82.6886 26.6554 81.8558 25.6827 80.7642 24.941C79.6725 24.1992 78.2729 23.8073 76.5655 23.7654C74.774 23.7234 73.2065 24.0453 71.863 24.731C70.5334 25.4168 69.3997 26.3615 68.462 27.5652C67.5383 28.7548 66.7896 30.0984 66.2157 31.5959C65.6559 33.0934 65.257 34.6119 65.0191 36.1515L63.9694 42.7854C63.7875 44.2269 63.7665 45.6685 63.9065 47.11C64.0464 48.5516 64.4033 49.8811 64.9771 51.0988C65.5509 52.3024 66.3767 53.2751 67.4543 54.0168C68.546 54.7586 69.9386 55.1505 71.632 55.1925C73.4515 55.2345 75.033 54.9126 76.3765 54.2268C77.7201 53.541 78.8538 52.6033 79.7775 51.4137C80.7012 50.224 81.4429 48.8805 82.0028 47.3829C82.5626 45.8854 82.9615 44.3529 83.1994 42.7854ZM81.8768 36.0675L80.8271 42.7854C80.6452 44.045 80.3443 45.2836 79.9244 46.5012C79.5185 47.7048 78.9587 48.8035 78.2449 49.7972C77.5312 50.7769 76.6495 51.5536 75.5998 52.1274C74.5501 52.6873 73.2905 52.9462 71.821 52.9042C70.4634 52.8622 69.3787 52.5193 68.567 51.8755C67.7692 51.2317 67.1884 50.413 66.8245 49.4193C66.4747 48.4116 66.2717 47.3339 66.2157 46.1863C66.1737 45.0247 66.2227 43.905 66.3627 42.8274L67.4124 36.1305C67.5943 34.8849 67.8952 33.6602 68.3151 32.4566C68.7349 31.239 69.3018 30.1403 70.0155 29.1607C70.7293 28.181 71.611 27.4112 72.6607 26.8514C73.7104 26.2776 74.963 26.0116 76.4185 26.0536C77.7901 26.0956 78.8748 26.4315 79.6725 27.0613C80.4842 27.6911 81.0651 28.5029 81.415 29.4965C81.7788 30.4762 81.9818 31.5469 82.0238 32.7085C82.0658 33.8702 82.0168 34.9898 81.8768 36.0675ZM92.5968 24.1846H91.6311H90.3295H89.5738L84.2415 54.751H86.6137L88.923 41.5461L91.005 28.1987L95.4729 54.751H97.3203L110.828 28.4577L108.384 41.3572L106.054 54.751H108.426L113.737 24.1846H113.023H111.638H110.567L96.9425 50.9721L92.5968 24.1846ZM21.0986 38.9011C21.8802 39.1684 22.5253 39.5882 23.034 40.1605C23.7198 40.9023 24.1957 41.791 24.4616 42.8267C24.7275 43.8484 24.8185 44.8911 24.7345 45.9547C24.5806 47.6902 24.1047 49.2227 23.307 50.5523C22.5092 51.8819 21.4315 52.9175 20.074 53.6593C18.7304 54.4011 17.1699 54.7649 15.3924 54.751H9.09442H7.60389H6.72217L12.0335 24.1846L19.3812 24.2056C20.5708 24.2336 21.6205 24.4295 22.5302 24.7934C23.4539 25.1573 24.2097 25.6751 24.7975 26.3469C25.3993 27.0187 25.8262 27.8374 26.0781 28.8031C26.344 29.7548 26.435 30.8325 26.351 32.0361C26.225 33.3237 25.8611 34.4783 25.2593 35.5C24.6715 36.5217 23.8878 37.3614 22.9081 38.0192C22.3503 38.3858 21.7471 38.6797 21.0986 38.9011ZM17.65 37.8642C18.7237 37.8188 19.6856 37.5836 20.5358 37.1585C21.5015 36.6826 22.2783 36.0039 22.8661 35.1221C23.4679 34.2264 23.8248 33.1557 23.9368 31.9101C24.0487 30.7905 23.9507 29.8318 23.6428 29.034C23.3489 28.2223 22.8381 27.5995 22.1103 27.1656C21.3966 26.7318 20.4588 26.4938 19.2972 26.4519L14.0279 26.4309L12.038 37.8536L13.9001 37.8603L13.9019 37.8513L17.65 37.8642ZM9.4856 52.5054L15.4974 52.5257C16.799 52.5257 17.9396 52.2457 18.9193 51.6859C19.899 51.1121 20.6828 50.3353 21.2706 49.3557C21.8724 48.376 22.2433 47.2493 22.3832 45.9757C22.4812 44.968 22.4042 44.0233 22.1523 43.1416C21.9004 42.2459 21.4385 41.5251 20.7668 40.9793C20.109 40.4335 19.2202 40.1326 18.1006 40.0766L13.461 40.0556H11.6544L9.4856 52.5054ZM204.632 24.1846L206.732 37.8723L213.596 24.1846H220.356L208.81 43.9394L206.963 54.751H200.874L202.869 43.3515L198.334 24.1846H204.632ZM180.949 54.751H183.007C184.98 54.7649 186.736 54.4431 188.276 53.7853C189.815 53.1275 191.145 52.2108 192.265 51.0351C193.398 49.8595 194.315 48.4879 195.015 46.9204C195.715 45.3529 196.211 43.6664 196.505 41.861L197.198 37.1165C197.408 35.437 197.38 33.8345 197.114 32.309C196.848 30.7835 196.323 29.4189 195.54 28.2153C194.77 27.0117 193.741 26.053 192.454 25.3392C191.166 24.6254 189.605 24.2476 187.772 24.2056L186.237 24.1993L186.24 24.1846H182.65H180.235L174.945 54.751H177.443H180.949ZM181.823 49.7L183.3 49.7125C184.966 49.7265 186.288 49.3836 187.268 48.6839C188.248 47.9841 188.983 47.0464 189.473 45.8708C189.976 44.6811 190.333 43.3375 190.543 41.84L191.236 37.0535C191.348 36.1718 191.425 35.2831 191.467 34.3874C191.509 33.4916 191.432 32.6659 191.236 31.9101C191.04 31.1544 190.648 30.5456 190.06 30.0837C189.486 29.6079 188.633 29.3489 187.499 29.307L185.354 29.2991L181.823 49.7ZM162.031 54.751H159.974H156.468H153.97L159.26 24.1846H161.675H165.264L165.262 24.1993L166.797 24.2056C168.63 24.2476 170.191 24.6254 171.478 25.3392C172.766 26.053 173.795 27.0117 174.564 28.2153C175.348 29.4189 175.873 30.7835 176.139 32.309C176.405 33.8345 176.433 35.437 176.223 37.1165L175.53 41.861C175.236 43.6664 174.739 45.3529 174.04 46.9204C173.34 48.4879 172.423 49.8595 171.29 51.0351C170.17 52.2108 168.84 53.1275 167.301 53.7853C165.761 54.4431 164.005 54.7649 162.031 54.751ZM162.325 49.7125L160.848 49.7L164.379 29.2991L166.524 29.307C167.658 29.3489 168.511 29.6079 169.085 30.0837C169.673 30.5456 170.065 31.1544 170.261 31.9101C170.457 32.6659 170.534 33.4916 170.492 34.3874C170.45 35.2831 170.373 36.1718 170.261 37.0535L169.568 41.84C169.358 43.3375 169.001 44.6811 168.497 45.8708C168.008 47.0464 167.273 47.9841 166.293 48.6839C165.313 49.3836 163.991 49.7265 162.325 49.7125ZM157.305 24.1846H151.322L147.795 45.199C147.642 46.1367 147.404 46.9904 147.082 47.7602C146.76 48.5159 146.277 49.1037 145.633 49.5236C144.989 49.9435 144.143 50.1324 143.093 50.0904C142.099 50.0624 141.385 49.8175 140.952 49.3557C140.532 48.8798 140.28 48.285 140.196 47.5712C140.126 46.8434 140.14 46.0527 140.238 45.199L143.744 24.1846H137.782L134.213 45.178C133.975 47.1374 134.143 48.8658 134.717 50.3633C135.304 51.8469 136.256 53.0155 137.572 53.8692C138.887 54.709 140.553 55.1498 142.568 55.1918C144.709 55.2198 146.564 54.8279 148.131 54.0162C149.699 53.2044 150.951 52.0428 151.889 50.5313C152.827 49.0058 153.443 47.2143 153.737 45.157L157.305 24.1846ZM130.222 38.796C129.909 38.9484 129.586 39.0836 129.252 39.2015C129.598 39.3476 129.914 39.5274 130.201 39.7407C131.04 40.3425 131.642 41.1472 132.006 42.1549C132.37 43.1626 132.503 44.3102 132.405 45.5978C132.279 47.5852 131.754 49.2647 130.83 50.6362C129.921 51.9938 128.703 53.0295 127.177 53.7433C125.652 54.4431 123.917 54.7789 121.971 54.751H117.856H113.994H111.852L117.143 24.1846L125.981 24.2056C127.268 24.2336 128.437 24.4225 129.487 24.7724C130.55 25.1083 131.46 25.6191 132.216 26.3049C132.972 26.9907 133.531 27.8374 133.895 28.8451C134.273 29.8528 134.42 31.0424 134.336 32.414C134.224 33.9395 133.804 35.2411 133.077 36.3188C132.363 37.3824 131.411 38.2082 130.222 38.796ZM125.939 36.5287C125.448 36.774 124.891 36.926 124.267 36.9848L120.934 36.9732L122.265 29.286L125.729 29.307C126.499 29.3349 127.08 29.5169 127.471 29.8528C127.863 30.1887 128.108 30.6295 128.206 31.1754C128.304 31.7072 128.304 32.33 128.206 33.0438C128.094 33.8695 127.842 34.5763 127.45 35.1641C127.073 35.7519 126.569 36.2068 125.939 36.5287ZM118.731 49.698L120.164 41.4244L124.49 41.4411C125.232 41.4971 125.757 41.742 126.065 42.1759C126.373 42.5958 126.541 43.1136 126.569 43.7294C126.611 44.3312 126.59 44.933 126.506 45.5349C126.408 46.3326 126.177 47.0394 125.813 47.6552C125.463 48.271 124.987 48.7608 124.385 49.1247C123.798 49.4886 123.084 49.6845 122.244 49.7125L118.731 49.698Z"/>
</mask>
<path fill-rule="evenodd" clip-rule="evenodd" d="M34.1705 18.6826L34.1802 18.6187L44.6185 16.2927L34.7996 20.0196C35.9938 21.6048 37.7323 22.7074 39.688 23.1197C43.7479 24.0133 47.8048 22.7904 50.8095 20.0559C51.3839 19.5231 51.905 18.937 52.3657 18.3056C52.4232 18.2284 52.4953 18.1331 52.5782 18.0233L52.5785 18.023L52.5785 18.0229C53.3231 17.0377 54.9466 14.8895 54.8322 14.251C54.646 13.2167 50.0704 11.8249 49.0212 11.5189C43.573 9.91055 36.6369 9.78323 34.1422 16C34.0224 16.3037 33.9511 16.6241 33.9308 16.9498L33.587 17.1056L33.3244 16.8483C33.4159 16.6338 33.4777 16.408 33.5084 16.177C34.2189 10.5926 29.0631 7.88018 24.4016 6.85319C23.5048 6.65678 19.5676 5.82962 19.0101 6.51528C18.6672 6.93154 18.9732 9.12382 19.1185 10.1649C19.1365 10.2941 19.152 10.4055 19.1636 10.4937C19.245 11.1442 19.3886 11.7859 19.5926 12.4102C20.1032 14.0053 21.001 15.4548 22.2078 16.6323C23.4146 17.8098 24.8936 18.6796 26.5162 19.1659C28.1273 19.6555 29.8618 19.5477 31.3927 18.8627L25.6936 12.1541L32.0794 17.7861L32.0718 17.8355C31.8788 19.0997 31.643 20.447 31.4054 21.8047L31.4053 21.8049C31.1445 23.2952 30.8814 24.7981 30.6704 26.2173L25.6547 54.9691H27.3761H28.0479H40.2451L40.665 52.7228H28.4382L32.8443 27.3665C32.9894 26.5808 33.1286 25.7853 33.2691 24.9217L33.3593 24.4027H33.3524C33.5995 22.8419 33.8551 21.0382 34.1587 18.6808L34.1705 18.6826ZM62.6543 36.1724L61.6047 42.7854C61.3667 44.3529 60.9679 45.8854 60.408 47.3829C59.8482 48.8805 59.1064 50.224 58.1827 51.4137C57.259 52.6033 56.1254 53.541 54.7818 54.2268C53.4382 54.9126 51.8567 55.2345 50.0373 55.1925C48.3438 55.1505 46.9513 54.7586 45.8596 54.0168C44.782 53.2751 43.9562 52.3024 43.3824 51.0988C42.8086 49.8811 42.4517 48.5516 42.3117 47.11C42.1718 45.6685 42.1928 44.2269 42.3747 42.7854L43.4244 36.1515C43.6623 34.6119 44.0612 33.0934 44.621 31.5959C45.1948 30.0984 45.9436 28.7548 46.8673 27.5652C47.805 26.3615 48.9386 25.4168 50.2682 24.731C51.6118 24.0453 53.1793 23.7234 54.9707 23.7654C56.6782 23.8073 58.0778 24.1992 59.1694 24.941C60.2611 25.6827 61.0938 26.6554 61.6676 27.8591C62.2415 29.0627 62.5914 30.3853 62.7173 31.8268C62.8573 33.2684 62.8363 34.7169 62.6543 36.1724ZM59.2324 42.7854L60.2821 36.0675C60.422 34.9898 60.471 33.8702 60.429 32.7085C60.387 31.5469 60.1841 30.4762 59.8202 29.4965C59.4703 28.5029 58.8895 27.6911 58.0778 27.0613C57.28 26.4315 56.1954 26.0956 54.8238 26.0536C53.3683 26.0116 52.1157 26.2776 51.066 26.8514C50.0163 27.4112 49.1346 28.181 48.4208 29.1607C47.707 30.1403 47.1402 31.239 46.7203 32.4566C46.3005 33.6602 45.9996 34.8849 45.8176 36.1305L44.768 42.8274C44.628 43.905 44.579 45.0247 44.621 46.1863C44.677 47.3339 44.8799 48.4116 45.2298 49.4193C45.5937 50.413 46.1745 51.2317 46.9723 51.8755C47.784 52.5193 48.8687 52.8622 50.2262 52.9042C51.6958 52.9462 52.9554 52.6873 54.0051 52.1274C55.0547 51.5536 55.9364 50.7769 56.6502 49.7972C57.364 48.8035 57.9238 47.7048 58.3297 46.5012C58.7496 45.2836 59.0505 44.045 59.2324 42.7854ZM83.1994 42.7854L84.2491 36.1724C84.431 34.7169 84.452 33.2684 84.312 31.8268C84.1861 30.3853 83.8362 29.0627 83.2624 27.8591C82.6886 26.6554 81.8558 25.6827 80.7642 24.941C79.6725 24.1992 78.2729 23.8073 76.5655 23.7654C74.774 23.7234 73.2065 24.0453 71.863 24.731C70.5334 25.4168 69.3997 26.3615 68.462 27.5652C67.5383 28.7548 66.7896 30.0984 66.2157 31.5959C65.6559 33.0934 65.257 34.6119 65.0191 36.1515L63.9694 42.7854C63.7875 44.2269 63.7665 45.6685 63.9065 47.11C64.0464 48.5516 64.4033 49.8811 64.9771 51.0988C65.5509 52.3024 66.3767 53.2751 67.4543 54.0168C68.546 54.7586 69.9386 55.1505 71.632 55.1925C73.4515 55.2345 75.033 54.9126 76.3765 54.2268C77.7201 53.541 78.8538 52.6033 79.7775 51.4137C80.7012 50.224 81.4429 48.8805 82.0028 47.3829C82.5626 45.8854 82.9615 44.3529 83.1994 42.7854ZM81.8768 36.0675L80.8271 42.7854C80.6452 44.045 80.3443 45.2836 79.9244 46.5012C79.5185 47.7048 78.9587 48.8035 78.2449 49.7972C77.5312 50.7769 76.6495 51.5536 75.5998 52.1274C74.5501 52.6873 73.2905 52.9462 71.821 52.9042C70.4634 52.8622 69.3787 52.5193 68.567 51.8755C67.7692 51.2317 67.1884 50.413 66.8245 49.4193C66.4747 48.4116 66.2717 47.3339 66.2157 46.1863C66.1737 45.0247 66.2227 43.905 66.3627 42.8274L67.4124 36.1305C67.5943 34.8849 67.8952 33.6602 68.3151 32.4566C68.7349 31.239 69.3018 30.1403 70.0155 29.1607C70.7293 28.181 71.611 27.4112 72.6607 26.8514C73.7104 26.2776 74.963 26.0116 76.4185 26.0536C77.7901 26.0956 78.8748 26.4315 79.6725 27.0613C80.4842 27.6911 81.0651 28.5029 81.415 29.4965C81.7788 30.4762 81.9818 31.5469 82.0238 32.7085C82.0658 33.8702 82.0168 34.9898 81.8768 36.0675ZM92.5968 24.1846H91.6311H90.3295H89.5738L84.2415 54.751H86.6137L88.923 41.5461L91.005 28.1987L95.4729 54.751H97.3203L110.828 28.4577L108.384 41.3572L106.054 54.751H108.426L113.737 24.1846H113.023H111.638H110.567L96.9425 50.9721L92.5968 24.1846ZM21.0986 38.9011C21.8802 39.1684 22.5253 39.5882 23.034 40.1605C23.7198 40.9023 24.1957 41.791 24.4616 42.8267C24.7275 43.8484 24.8185 44.8911 24.7345 45.9547C24.5806 47.6902 24.1047 49.2227 23.307 50.5523C22.5092 51.8819 21.4315 52.9175 20.074 53.6593C18.7304 54.4011 17.1699 54.7649 15.3924 54.751H9.09442H7.60389H6.72217L12.0335 24.1846L19.3812 24.2056C20.5708 24.2336 21.6205 24.4295 22.5302 24.7934C23.4539 25.1573 24.2097 25.6751 24.7975 26.3469C25.3993 27.0187 25.8262 27.8374 26.0781 28.8031C26.344 29.7548 26.435 30.8325 26.351 32.0361C26.225 33.3237 25.8611 34.4783 25.2593 35.5C24.6715 36.5217 23.8878 37.3614 22.9081 38.0192C22.3503 38.3858 21.7471 38.6797 21.0986 38.9011ZM17.65 37.8642C18.7237 37.8188 19.6856 37.5836 20.5358 37.1585C21.5015 36.6826 22.2783 36.0039 22.8661 35.1221C23.4679 34.2264 23.8248 33.1557 23.9368 31.9101C24.0487 30.7905 23.9507 29.8318 23.6428 29.034C23.3489 28.2223 22.8381 27.5995 22.1103 27.1656C21.3966 26.7318 20.4588 26.4938 19.2972 26.4519L14.0279 26.4309L12.038 37.8536L13.9001 37.8603L13.9019 37.8513L17.65 37.8642ZM9.4856 52.5054L15.4974 52.5257C16.799 52.5257 17.9396 52.2457 18.9193 51.6859C19.899 51.1121 20.6828 50.3353 21.2706 49.3557C21.8724 48.376 22.2433 47.2493 22.3832 45.9757C22.4812 44.968 22.4042 44.0233 22.1523 43.1416C21.9004 42.2459 21.4385 41.5251 20.7668 40.9793C20.109 40.4335 19.2202 40.1326 18.1006 40.0766L13.461 40.0556H11.6544L9.4856 52.5054ZM204.632 24.1846L206.732 37.8723L213.596 24.1846H220.356L208.81 43.9394L206.963 54.751H200.874L202.869 43.3515L198.334 24.1846H204.632ZM180.949 54.751H183.007C184.98 54.7649 186.736 54.4431 188.276 53.7853C189.815 53.1275 191.145 52.2108 192.265 51.0351C193.398 49.8595 194.315 48.4879 195.015 46.9204C195.715 45.3529 196.211 43.6664 196.505 41.861L197.198 37.1165C197.408 35.437 197.38 33.8345 197.114 32.309C196.848 30.7835 196.323 29.4189 195.54 28.2153C194.77 27.0117 193.741 26.053 192.454 25.3392C191.166 24.6254 189.605 24.2476 187.772 24.2056L186.237 24.1993L186.24 24.1846H182.65H180.235L174.945 54.751H177.443H180.949ZM181.823 49.7L183.3 49.7125C184.966 49.7265 186.288 49.3836 187.268 48.6839C188.248 47.9841 188.983 47.0464 189.473 45.8708C189.976 44.6811 190.333 43.3375 190.543 41.84L191.236 37.0535C191.348 36.1718 191.425 35.2831 191.467 34.3874C191.509 33.4916 191.432 32.6659 191.236 31.9101C191.04 31.1544 190.648 30.5456 190.06 30.0837C189.486 29.6079 188.633 29.3489 187.499 29.307L185.354 29.2991L181.823 49.7ZM162.031 54.751H159.974H156.468H153.97L159.26 24.1846H161.675H165.264L165.262 24.1993L166.797 24.2056C168.63 24.2476 170.191 24.6254 171.478 25.3392C172.766 26.053 173.795 27.0117 174.564 28.2153C175.348 29.4189 175.873 30.7835 176.139 32.309C176.405 33.8345 176.433 35.437 176.223 37.1165L175.53 41.861C175.236 43.6664 174.739 45.3529 174.04 46.9204C173.34 48.4879 172.423 49.8595 171.29 51.0351C170.17 52.2108 168.84 53.1275 167.301 53.7853C165.761 54.4431 164.005 54.7649 162.031 54.751ZM162.325 49.7125L160.848 49.7L164.379 29.2991L166.524 29.307C167.658 29.3489 168.511 29.6079 169.085 30.0837C169.673 30.5456 170.065 31.1544 170.261 31.9101C170.457 32.6659 170.534 33.4916 170.492 34.3874C170.45 35.2831 170.373 36.1718 170.261 37.0535L169.568 41.84C169.358 43.3375 169.001 44.6811 168.497 45.8708C168.008 47.0464 167.273 47.9841 166.293 48.6839C165.313 49.3836 163.991 49.7265 162.325 49.7125ZM157.305 24.1846H151.322L147.795 45.199C147.642 46.1367 147.404 46.9904 147.082 47.7602C146.76 48.5159 146.277 49.1037 145.633 49.5236C144.989 49.9435 144.143 50.1324 143.093 50.0904C142.099 50.0624 141.385 49.8175 140.952 49.3557C140.532 48.8798 140.28 48.285 140.196 47.5712C140.126 46.8434 140.14 46.0527 140.238 45.199L143.744 24.1846H137.782L134.213 45.178C133.975 47.1374 134.143 48.8658 134.717 50.3633C135.304 51.8469 136.256 53.0155 137.572 53.8692C138.887 54.709 140.553 55.1498 142.568 55.1918C144.709 55.2198 146.564 54.8279 148.131 54.0162C149.699 53.2044 150.951 52.0428 151.889 50.5313C152.827 49.0058 153.443 47.2143 153.737 45.157L157.305 24.1846ZM130.222 38.796C129.909 38.9484 129.586 39.0836 129.252 39.2015C129.598 39.3476 129.914 39.5274 130.201 39.7407C131.04 40.3425 131.642 41.1472 132.006 42.1549C132.37 43.1626 132.503 44.3102 132.405 45.5978C132.279 47.5852 131.754 49.2647 130.83 50.6362C129.921 51.9938 128.703 53.0295 127.177 53.7433C125.652 54.4431 123.917 54.7789 121.971 54.751H117.856H113.994H111.852L117.143 24.1846L125.981 24.2056C127.268 24.2336 128.437 24.4225 129.487 24.7724C130.55 25.1083 131.46 25.6191 132.216 26.3049C132.972 26.9907 133.531 27.8374 133.895 28.8451C134.273 29.8528 134.42 31.0424 134.336 32.414C134.224 33.9395 133.804 35.2411 133.077 36.3188C132.363 37.3824 131.411 38.2082 130.222 38.796ZM125.939 36.5287C125.448 36.774 124.891 36.926 124.267 36.9848L120.934 36.9732L122.265 29.286L125.729 29.307C126.499 29.3349 127.08 29.5169 127.471 29.8528C127.863 30.1887 128.108 30.6295 128.206 31.1754C128.304 31.7072 128.304 32.33 128.206 33.0438C128.094 33.8695 127.842 34.5763 127.45 35.1641C127.073 35.7519 126.569 36.2068 125.939 36.5287ZM118.731 49.698L120.164 41.4244L124.49 41.4411C125.232 41.4971 125.757 41.742 126.065 42.1759C126.373 42.5958 126.541 43.1136 126.569 43.7294C126.611 44.3312 126.59 44.933 126.506 45.5349C126.408 46.3326 126.177 47.0394 125.813 47.6552C125.463 48.271 124.987 48.7608 124.385 49.1247C123.798 49.4886 123.084 49.6845 122.244 49.7125L118.731 49.698Z" fill="white"/>
<path d="M34.1802 18.6187L33.0928 13.7383C31.0798 14.1869 29.5487 15.8254 29.2375 17.8642L34.1802 18.6187ZM34.1705 18.6826L33.4162 23.6254C36.146 24.042 38.6966 22.1668 39.1132 19.4371L34.1705 18.6826ZM44.6185 16.2927L46.3928 20.9673C48.8445 20.0368 50.1607 17.3702 49.4083 14.8582C48.6559 12.3461 46.0906 10.8421 43.531 11.4124L44.6185 16.2927ZM34.7996 20.0196L33.0253 15.345C31.5547 15.9032 30.4325 17.1209 29.996 18.6321C29.5595 20.1433 29.8596 21.7718 30.806 23.0282L34.7996 20.0196ZM39.688 23.1197L40.7627 18.2366C40.7484 18.2334 40.734 18.2304 40.7197 18.2273L39.688 23.1197ZM50.8095 20.0559L54.1749 23.7538C54.1866 23.7431 54.1982 23.7325 54.2098 23.7217L50.8095 20.0559ZM52.3657 18.3056L48.3561 15.3184C48.3462 15.3317 48.3364 15.3451 48.3266 15.3585L52.3657 18.3056ZM52.5782 18.0233L48.6102 14.9811C48.6032 14.9903 48.5962 14.9995 48.5892 15.0087L52.5782 18.0233ZM52.5785 18.023L48.9045 14.6316C48.8012 14.7434 48.7031 14.86 48.6105 14.9808L52.5785 18.023ZM52.5785 18.0229L56.2526 21.4143C56.3636 21.294 56.4688 21.1682 56.5675 21.0376L52.5785 18.0229ZM54.8322 14.251L59.7539 13.3695L59.7531 13.3647L54.8322 14.251ZM49.0212 11.5189L47.6056 16.3143C47.6108 16.3159 47.6161 16.3174 47.6214 16.3189L49.0212 11.5189ZM34.1422 16L29.5019 14.138C29.4983 14.1468 29.4948 14.1557 29.4913 14.1646L34.1422 16ZM33.9308 16.9498L35.9951 21.5038C37.6807 20.7397 38.8064 19.107 38.9212 17.2598L33.9308 16.9498ZM33.587 17.1056L30.0876 20.6769C31.5617 22.1213 33.7716 22.5116 35.6513 21.6596L33.587 17.1056ZM33.3244 16.8483L28.7248 14.8879C27.9173 16.7824 28.354 18.9782 29.825 20.4196L33.3244 16.8483ZM33.5084 16.177L38.4649 16.8352C38.4661 16.8262 38.4673 16.8171 38.4684 16.8081L33.5084 16.177ZM24.4016 6.85319L25.4774 1.97029L25.4713 1.96896L24.4016 6.85319ZM19.0101 6.51528L22.8695 9.6941C22.8762 9.68595 22.8829 9.67779 22.8895 9.66961L19.0101 6.51528ZM19.1185 10.1649L14.1665 10.856L14.1665 10.856L19.1185 10.1649ZM19.1636 10.4937L24.1249 9.87286C24.1237 9.86352 24.1225 9.85418 24.1213 9.84484L19.1636 10.4937ZM19.5926 12.4102L24.3545 10.8857C24.3515 10.8763 24.3484 10.8669 24.3454 10.8575L19.5926 12.4102ZM22.2078 16.6323L18.7159 20.2109L18.7159 20.2109L22.2078 16.6323ZM26.5162 19.1659L27.9701 14.3819C27.964 14.3801 27.9578 14.3782 27.9517 14.3764L26.5162 19.1659ZM31.3927 18.8627L33.4347 23.4268C34.871 22.7842 35.9211 21.5029 36.269 19.9683C36.6169 18.4337 36.2221 16.8248 35.2034 15.6256L31.3927 18.8627ZM25.6936 12.1541L29.0009 8.40419C27.0345 6.66981 24.0622 6.74912 22.1911 8.5859C20.3199 10.4227 20.1854 13.3929 21.883 15.3913L25.6936 12.1541ZM32.0794 17.7861L37.0221 18.5405C37.2788 16.8586 36.6627 15.1616 35.3867 14.0362L32.0794 17.7861ZM32.0718 17.8355L37.0145 18.5901L37.0146 18.5899L32.0718 17.8355ZM31.4054 21.8047L36.3197 22.7262C36.3234 22.7064 36.327 22.6866 36.3305 22.6668L31.4054 21.8047ZM31.4053 21.8049L26.491 20.8835C26.4873 20.9033 26.4837 20.9231 26.4802 20.9429L31.4053 21.8049ZM30.6704 26.2173L35.5961 27.0766C35.6032 27.0353 35.6099 26.994 35.6161 26.9526L30.6704 26.2173ZM25.6547 54.9691L20.7291 54.1098C20.4753 55.5642 20.8774 57.0564 21.8274 58.1865C22.7774 59.3166 24.1783 59.9691 25.6547 59.9691V54.9691ZM40.2451 54.9691V59.9691C42.6522 59.9691 44.7177 58.2539 45.16 55.8878L40.2451 54.9691ZM40.665 52.7228L45.5798 53.6415C45.853 52.1798 45.4615 50.6725 44.5116 49.5285C43.5617 48.3846 42.1519 47.7228 40.665 47.7228V52.7228ZM28.4382 52.7228L23.5121 51.8668C23.2594 53.3208 23.662 54.8121 24.612 55.9415C25.5621 57.0708 26.9625 57.7228 28.4382 57.7228V52.7228ZM32.8443 27.3665L27.9275 26.458C27.9242 26.4755 27.9211 26.493 27.9181 26.5105L32.8443 27.3665ZM33.2691 24.9217L28.3429 24.0657C28.3398 24.0834 28.3368 24.1011 28.334 24.1188L33.2691 24.9217ZM33.3593 24.4027L38.2854 25.2587C38.5381 23.8047 38.1355 22.3133 37.1855 21.184C36.2355 20.0547 34.835 19.4027 33.3593 19.4027V24.4027ZM33.3524 24.4027L28.4139 23.6209C28.1852 25.0655 28.6005 26.5379 29.5504 27.6501C30.5004 28.7622 31.8897 29.4027 33.3524 29.4027V24.4027ZM34.1587 18.6808L34.913 13.7381C33.582 13.535 32.2255 13.8772 31.1501 14.6873C30.0748 15.4974 29.3716 16.7069 29.1996 18.0422L34.1587 18.6808ZM61.6047 42.7854L56.6665 42.0015C56.6647 42.0127 56.663 42.0239 56.6613 42.035L61.6047 42.7854ZM62.6543 36.1724L67.5925 36.9563C67.6011 36.9019 67.6089 36.8473 67.6157 36.7926L62.6543 36.1724ZM60.408 47.3829L55.7246 45.6321L55.7246 45.6321L60.408 47.3829ZM54.7818 54.2268L57.0549 58.6802L57.0549 58.6802L54.7818 54.2268ZM50.0373 55.1925L49.9134 60.1909L49.922 60.1911L50.0373 55.1925ZM45.8596 54.0168L43.0247 58.1355C43.033 58.1412 43.0412 58.1468 43.0495 58.1524L45.8596 54.0168ZM43.3824 51.0988L38.8595 53.2302C38.8627 53.237 38.8659 53.2437 38.8691 53.2505L43.3824 51.0988ZM42.3117 47.11L37.3351 47.5932L37.3351 47.5932L42.3117 47.11ZM42.3747 42.7854L37.4362 42.004C37.428 42.0556 37.4206 42.1074 37.4141 42.1593L42.3747 42.7854ZM43.4244 36.1515L48.3629 36.9329C48.3639 36.927 48.3648 36.921 48.3657 36.9151L43.4244 36.1515ZM44.621 31.5959L39.952 29.8068C39.9472 29.8196 39.9423 29.8323 39.9376 29.8451L44.621 31.5959ZM46.8673 27.5652L42.923 24.4923L42.918 24.4987L46.8673 27.5652ZM50.2682 24.731L47.9951 20.2776C47.9888 20.2808 47.9825 20.2841 47.9762 20.2873L50.2682 24.731ZM54.9707 23.7654L55.0937 18.7669L55.0879 18.7667L54.9707 23.7654ZM59.1694 24.941L56.3593 29.0766L56.3593 29.0766L59.1694 24.941ZM61.6676 27.8591L66.181 25.7074L66.181 25.7074L61.6676 27.8591ZM62.7173 31.8268L57.7363 32.2621C57.7377 32.278 57.7392 32.294 57.7407 32.31L62.7173 31.8268ZM60.2821 36.0675L65.2221 36.8394C65.2288 36.7968 65.2349 36.7542 65.2404 36.7114L60.2821 36.0675ZM59.2324 42.7854L54.2923 42.0135C54.2894 42.0325 54.2865 42.0515 54.2838 42.0706L59.2324 42.7854ZM60.429 32.7085L65.4258 32.5279L65.4258 32.5279L60.429 32.7085ZM59.8202 29.4965L55.104 31.1572C55.1135 31.184 55.1232 31.2108 55.1331 31.2375L59.8202 29.4965ZM58.0778 27.0613L54.9795 30.9857C54.9906 30.9944 55.0017 31.0031 55.0128 31.0117L58.0778 27.0613ZM54.8238 26.0536L54.9768 21.056L54.968 21.0557L54.8238 26.0536ZM51.066 26.8514L53.4189 31.2631C53.4341 31.2551 53.4492 31.2469 53.4643 31.2386L51.066 26.8514ZM48.4208 29.1607L52.462 32.1049L52.462 32.1049L48.4208 29.1607ZM46.7203 32.4566L51.4413 34.1035C51.4433 34.0979 51.4453 34.0922 51.4472 34.0866L46.7203 32.4566ZM45.8176 36.1305L50.7573 36.9047C50.76 36.8875 50.7626 36.8703 50.7651 36.8531L45.8176 36.1305ZM44.768 42.8274L39.8283 42.0531C39.8215 42.0965 39.8153 42.1399 39.8096 42.1834L44.768 42.8274ZM44.621 46.1863L39.6243 46.3669C39.625 46.3879 39.6259 46.4089 39.6269 46.4299L44.621 46.1863ZM45.2298 49.4193L40.5064 51.0593C40.5156 51.0858 40.5251 51.1123 40.5347 51.1386L45.2298 49.4193ZM46.9723 51.8755L43.8322 55.7665C43.8432 55.7754 43.8542 55.7842 43.8653 55.793L46.9723 51.8755ZM50.2262 52.9042L50.0717 57.9018L50.0835 57.9021L50.2262 52.9042ZM54.0051 52.1274L56.358 56.5392C56.3732 56.5311 56.3883 56.5229 56.4034 56.5147L54.0051 52.1274ZM56.6502 49.7972L60.6914 52.7414C60.698 52.7324 60.7046 52.7233 60.7111 52.7142L56.6502 49.7972ZM58.3297 46.5012L53.6028 44.8712C53.5991 44.882 53.5954 44.8928 53.5918 44.9035L58.3297 46.5012ZM84.2491 36.1724L89.1872 36.9563C89.1959 36.9019 89.2036 36.8473 89.2104 36.7926L84.2491 36.1724ZM83.1994 42.7854L78.2612 42.0015C78.2594 42.0127 78.2577 42.0239 78.256 42.035L83.1994 42.7854ZM84.312 31.8268L79.331 32.2621C79.3324 32.278 79.3339 32.294 79.3354 32.31L84.312 31.8268ZM83.2624 27.8591L87.7757 25.7074L87.7757 25.7074L83.2624 27.8591ZM80.7642 24.941L83.5743 20.8054L83.5743 20.8054L80.7642 24.941ZM76.5655 23.7654L76.6884 18.7669L76.6826 18.7667L76.5655 23.7654ZM71.863 24.731L69.5899 20.2776C69.5835 20.2808 69.5772 20.2841 69.5709 20.2873L71.863 24.731ZM68.462 27.5652L64.5177 24.4923L64.5128 24.4987L68.462 27.5652ZM66.2157 31.5959L61.5468 29.8068C61.5419 29.8196 61.5371 29.8323 61.5323 29.8451L66.2157 31.5959ZM65.0191 36.1515L69.9577 36.9329C69.9586 36.927 69.9595 36.921 69.9604 36.9151L65.0191 36.1515ZM63.9694 42.7854L59.0309 42.004C59.0227 42.0556 59.0153 42.1074 59.0088 42.1593L63.9694 42.7854ZM63.9065 47.11L58.9299 47.5932L58.9299 47.5932L63.9065 47.11ZM64.9771 51.0988L60.4542 53.2302C60.4574 53.237 60.4606 53.2437 60.4638 53.2505L64.9771 51.0988ZM67.4543 54.0168L64.6194 58.1355C64.6277 58.1412 64.636 58.1468 64.6442 58.1524L67.4543 54.0168ZM71.632 55.1925L71.5081 60.1909L71.5167 60.1911L71.632 55.1925ZM76.3765 54.2268L78.6496 58.6802L78.6496 58.6802L76.3765 54.2268ZM79.7775 51.4137L75.8282 48.3472L75.8282 48.3472L79.7775 51.4137ZM80.8271 42.7854L75.8871 42.0135C75.8841 42.0325 75.8813 42.0515 75.8785 42.0706L80.8271 42.7854ZM81.8768 36.0675L86.8169 36.8394C86.8235 36.7968 86.8296 36.7541 86.8352 36.7114L81.8768 36.0675ZM79.9244 46.5012L75.1976 44.8712C75.1939 44.882 75.1902 44.8928 75.1865 44.9035L79.9244 46.5012ZM78.2449 49.7972L82.2861 52.7414C82.2927 52.7324 82.2993 52.7233 82.3059 52.7142L78.2449 49.7972ZM75.5998 52.1274L77.9527 56.5392C77.9679 56.5311 77.983 56.5229 77.9981 56.5147L75.5998 52.1274ZM71.821 52.9042L71.6664 57.9018L71.6782 57.9021L71.821 52.9042ZM68.567 51.8755L65.4269 55.7665C65.4379 55.7754 65.4489 55.7842 65.46 55.793L68.567 51.8755ZM66.8245 49.4193L62.1012 51.0593C62.1104 51.0858 62.1198 51.1123 62.1295 51.1386L66.8245 49.4193ZM66.2157 46.1863L61.219 46.3669C61.2198 46.3879 61.2207 46.4089 61.2217 46.4299L66.2157 46.1863ZM66.3627 42.8274L61.423 42.0531C61.4162 42.0965 61.41 42.1399 61.4043 42.1834L66.3627 42.8274ZM67.4124 36.1305L72.352 36.9047C72.3547 36.8875 72.3573 36.8703 72.3599 36.8531L67.4124 36.1305ZM68.3151 32.4566L73.0361 34.1035C73.038 34.0979 73.04 34.0922 73.0419 34.0866L68.3151 32.4566ZM70.0155 29.1607L74.0567 32.1049L74.0567 32.1049L70.0155 29.1607ZM72.6607 26.8514L75.0137 31.2631C75.0288 31.255 75.044 31.2469 75.0591 31.2386L72.6607 26.8514ZM76.4185 26.0536L76.5715 21.056L76.5627 21.0557L76.4185 26.0536ZM79.6725 27.0613L76.5743 30.9857C76.5853 30.9944 76.5964 31.0031 76.6075 31.0117L79.6725 27.0613ZM81.415 29.4965L76.6988 31.1572C76.7082 31.184 76.7179 31.2108 76.7278 31.2375L81.415 29.4965ZM82.0238 32.7085L87.0205 32.5279L87.0205 32.5279L82.0238 32.7085ZM92.5968 24.1846L97.5323 23.3839C97.1396 20.9632 95.0492 19.1846 92.5968 19.1846V24.1846ZM89.5738 24.1846V19.1846C87.1439 19.1846 85.0658 20.9315 84.6482 23.3253L89.5738 24.1846ZM84.2415 54.751L79.3158 53.8917C79.0621 55.3461 79.4641 56.8383 80.4142 57.9684C81.3642 59.0985 82.7651 59.751 84.2415 59.751V54.751ZM86.6137 54.751V59.751C89.0428 59.751 91.1205 58.0051 91.539 55.6123L86.6137 54.751ZM88.923 41.5461L93.8482 42.4074C93.8535 42.3772 93.8585 42.347 93.8632 42.3167L88.923 41.5461ZM91.005 28.1987L95.9357 27.369C95.5287 24.9504 93.4276 23.1841 90.9751 23.1988C88.5225 23.2134 86.4427 25.0048 86.0647 27.4281L91.005 28.1987ZM95.4729 54.751L90.5422 55.5806C90.9473 57.988 93.0317 59.751 95.4729 59.751V54.751ZM97.3203 54.751V59.751C99.1945 59.751 100.911 58.7028 101.768 57.0358L97.3203 54.751ZM110.828 28.4577L115.741 29.3886C116.203 26.9471 114.803 24.5364 112.453 23.729C110.103 22.9216 107.516 23.9626 106.381 26.1729L110.828 28.4577ZM108.384 41.3572L103.471 40.4263C103.467 40.4509 103.462 40.4755 103.458 40.5001L108.384 41.3572ZM106.054 54.751L101.128 53.8939C100.875 55.3481 101.277 56.8397 102.227 57.9693C103.177 59.0988 104.578 59.751 106.054 59.751V54.751ZM108.426 54.751V59.751C110.857 59.751 112.936 58.0022 113.352 55.6069L108.426 54.751ZM113.737 24.1846L118.663 25.0406C118.916 23.5866 118.513 22.0952 117.563 20.9659C116.613 19.8365 115.213 19.1846 113.737 19.1846V24.1846ZM110.567 24.1846V19.1846C108.686 19.1846 106.963 20.2408 106.111 21.9178L110.567 24.1846ZM96.9425 50.9721L92.007 51.7728C92.3534 53.9082 94.0338 55.5787 96.1713 55.9123C98.3088 56.246 100.418 55.1672 101.399 53.2389L96.9425 50.9721ZM23.034 40.1605L19.297 43.4824C19.3186 43.5067 19.3405 43.5309 19.3627 43.5548L23.034 40.1605ZM21.0986 38.9011L19.4834 34.1692C17.4597 34.8599 16.0993 36.7612 16.0986 38.8995C16.0979 41.0379 17.4572 42.94 19.4804 43.632L21.0986 38.9011ZM24.4616 42.8267L19.6187 44.0702C19.62 44.0755 19.6214 44.0808 19.6228 44.0861L24.4616 42.8267ZM24.7345 45.9547L29.7149 46.3965C29.7164 46.3804 29.7177 46.3643 29.719 46.3482L24.7345 45.9547ZM23.307 50.5523L27.5944 53.1248L27.5944 53.1248L23.307 50.5523ZM20.074 53.6593L17.6765 49.2715C17.6701 49.275 17.6638 49.2786 17.6574 49.2821L20.074 53.6593ZM15.3924 54.751L15.4318 49.7511C15.4187 49.751 15.4056 49.751 15.3924 49.751L15.3924 54.751ZM6.72217 54.751L1.79599 53.895C1.54333 55.349 1.94592 56.8403 2.89595 57.9697C3.84597 59.099 5.24638 59.751 6.72217 59.751L6.72217 54.751ZM12.0335 24.1846L12.0478 19.1846C9.61123 19.1776 7.52445 20.928 7.10731 23.3286L12.0335 24.1846ZM19.3812 24.2056L19.4988 19.2069C19.4644 19.2061 19.4299 19.2057 19.3955 19.2056L19.3812 24.2056ZM22.5302 24.7934L20.6732 29.4358C20.6813 29.439 20.6895 29.4422 20.6976 29.4454L22.5302 24.7934ZM24.7975 26.3469L21.0346 29.6394C21.0474 29.6541 21.0603 29.6686 21.0733 29.6831L24.7975 26.3469ZM26.0781 28.8031L21.24 30.0652C21.2473 30.0931 21.2548 30.1209 21.2625 30.1486L26.0781 28.8031ZM26.351 32.0361L31.3272 32.5229C31.3318 32.4767 31.3356 32.4304 31.3389 32.3841L26.351 32.0361ZM25.2593 35.5L20.9512 32.9623C20.9425 32.977 20.9339 32.9918 20.9254 33.0065L25.2593 35.5ZM22.9081 38.0192L25.654 42.1977C25.6678 42.1887 25.6815 42.1795 25.6953 42.1703L22.9081 38.0192ZM20.5358 37.1585L18.3258 32.6734C18.3171 32.6777 18.3084 32.682 18.2997 32.6864L20.5358 37.1585ZM17.65 37.8642L17.6328 42.8641C17.7089 42.8644 17.7849 42.8629 17.8609 42.8597L17.65 37.8642ZM22.8661 35.1221L18.7158 32.3337C18.7125 32.3387 18.7092 32.3436 18.7058 32.3486L22.8661 35.1221ZM23.9368 31.9101L18.9616 31.4126C18.9599 31.4292 18.9583 31.4459 18.9568 31.4625L23.9368 31.9101ZM23.6428 29.034L18.9415 30.7362C18.9534 30.7691 18.9656 30.8018 18.9782 30.8344L23.6428 29.034ZM22.1103 27.1656L19.5133 31.4382C19.5255 31.4457 19.5377 31.453 19.55 31.4604L22.1103 27.1656ZM19.2972 26.4519L19.4778 21.4551C19.4243 21.4532 19.3707 21.4521 19.3171 21.4519L19.2972 26.4519ZM14.0279 26.4309L14.0478 21.4309C11.6099 21.4212 9.52044 23.1711 9.10205 25.5728L14.0279 26.4309ZM12.038 37.8536L7.11217 36.9955C6.85937 38.4467 7.25934 39.9355 8.20534 41.0647C9.15134 42.1938 10.5471 42.8483 12.0201 42.8536L12.038 37.8536ZM13.9001 37.8603L13.8823 42.8602C16.2724 42.8688 18.3343 41.1845 18.803 38.8408L13.9001 37.8603ZM13.9019 37.8513L13.9191 32.8513C11.5292 32.8431 9.46767 34.5273 8.999 36.8707L13.9019 37.8513ZM15.4974 52.5257L15.4806 57.5256C15.4862 57.5256 15.4918 57.5257 15.4974 57.5257L15.4974 52.5257ZM9.4856 52.5054L4.55979 51.6473C4.30695 53.0987 4.70705 54.5877 5.65328 55.7168C6.59951 56.846 7.99556 57.5004 9.46877 57.5054L9.4856 52.5054ZM18.9193 51.6859L21.4 56.0271C21.4155 56.0183 21.431 56.0094 21.4464 56.0003L18.9193 51.6859ZM21.2706 49.3557L17.0102 46.7386C17.0011 46.7534 16.9921 46.7683 16.9831 46.7832L21.2706 49.3557ZM22.3832 45.9757L27.3533 46.5219C27.3556 46.5011 27.3578 46.4803 27.3598 46.4595L22.3832 45.9757ZM22.1523 43.1416L17.3391 44.4953C17.3409 44.502 17.3428 44.5086 17.3447 44.5152L22.1523 43.1416ZM20.7668 40.9793L17.5739 44.8271C17.5871 44.8381 17.6004 44.849 17.6138 44.8599L20.7668 40.9793ZM18.1006 40.0766L18.3503 35.0828C18.2746 35.079 18.1989 35.077 18.1232 35.0766L18.1006 40.0766ZM13.461 40.0556L13.4837 35.0556C13.4761 35.0556 13.4686 35.0556 13.461 35.0556L13.461 40.0556ZM11.6544 40.0556V35.0556C9.22404 35.0556 7.14568 36.8032 6.72859 39.1975L11.6544 40.0556ZM206.732 37.8723L201.789 38.6303C202.119 40.7816 203.803 42.4724 205.953 42.8113C208.103 43.1502 210.225 42.0593 211.201 40.1138L206.732 37.8723ZM204.632 24.1846L209.574 23.4266C209.2 20.9864 207.101 19.1846 204.632 19.1846V24.1846ZM213.596 24.1846V19.1846C211.705 19.1846 209.975 20.2521 209.127 21.943L213.596 24.1846ZM220.356 24.1846L224.673 26.7076C225.577 25.1613 225.584 23.2496 224.693 21.6961C223.802 20.1426 222.147 19.1846 220.356 19.1846V24.1846ZM208.81 43.9394L204.493 41.4163C204.19 41.9353 203.983 42.5047 203.881 43.0972L208.81 43.9394ZM206.963 54.751V59.751C209.399 59.751 211.481 57.9948 211.891 55.5931L206.963 54.751ZM200.874 54.751L195.949 53.8893C195.695 55.344 196.096 56.8368 197.046 57.9674C197.996 59.0981 199.398 59.751 200.874 59.751V54.751ZM202.869 43.3515L207.794 44.2132C207.911 43.5452 207.891 42.8604 207.734 42.2004L202.869 43.3515ZM198.334 24.1846V19.1846C196.806 19.1846 195.361 19.8838 194.413 21.0826C193.464 22.2814 193.117 23.8482 193.469 25.3357L198.334 24.1846ZM183.007 54.751L183.042 49.7511C183.03 49.751 183.018 49.751 183.007 49.751L183.007 54.751ZM188.276 53.7853L190.24 58.3831L190.24 58.3831L188.276 53.7853ZM192.265 51.0351L188.665 47.5644C188.658 47.5719 188.651 47.5794 188.644 47.5869L192.265 51.0351ZM195.015 46.9204L190.449 44.8822L190.449 44.8822L195.015 46.9204ZM196.505 41.861L201.44 42.6644C201.445 42.6375 201.449 42.6105 201.453 42.5834L196.505 41.861ZM197.198 37.1165L202.146 37.8389C202.151 37.8049 202.155 37.7708 202.159 37.7367L197.198 37.1165ZM195.54 28.2153L191.327 30.9092C191.335 30.9207 191.342 30.9322 191.35 30.9437L195.54 28.2153ZM192.454 25.3392L194.878 20.9662L194.878 20.9662L192.454 25.3392ZM187.772 24.2056L187.887 19.2069C187.855 19.2062 187.824 19.2057 187.793 19.2056L187.772 24.2056ZM186.237 24.1993L181.31 23.3454C181.059 24.7956 181.459 26.2829 182.405 27.4109C183.35 28.539 184.745 29.1932 186.216 29.1992L186.237 24.1993ZM186.24 24.1846L191.166 25.0385C191.418 23.5847 191.015 22.0939 190.065 20.9651C189.115 19.8362 187.715 19.1846 186.24 19.1846V24.1846ZM180.235 24.1846V19.1846C177.803 19.1846 175.723 20.9351 175.309 23.3319L180.235 24.1846ZM174.945 54.751L170.018 53.8983C169.767 55.3518 170.17 56.8424 171.12 57.9709C172.07 59.0995 173.47 59.751 174.945 59.751V54.751ZM183.3 49.7125L183.258 54.7124L183.258 54.7124L183.3 49.7125ZM181.823 49.7L176.897 48.8473C176.646 50.2935 177.044 51.7767 177.985 52.9036C178.925 54.0305 180.313 54.6873 181.781 54.6998L181.823 49.7ZM189.473 45.8708L184.868 43.9208C184.865 43.9298 184.861 43.9387 184.857 43.9476L189.473 45.8708ZM190.543 41.84L185.595 41.1238C185.594 41.1311 185.593 41.1385 185.592 41.1458L190.543 41.84ZM191.236 37.0535L196.184 37.7697C196.189 37.741 196.192 37.7122 196.196 37.6834L191.236 37.0535ZM191.467 34.3874L196.461 34.6215L196.461 34.6215L191.467 34.3874ZM190.06 30.0837L186.869 33.9325C186.902 33.9606 186.937 33.9882 186.971 34.0153L190.06 30.0837ZM187.499 29.307L187.684 24.3104C187.629 24.3083 187.573 24.3072 187.517 24.307L187.499 29.307ZM185.354 29.2991L185.373 24.2992C182.933 24.2903 180.844 26.0428 180.428 28.4464L185.354 29.2991ZM162.031 54.751L162.067 49.7511C162.055 49.751 162.043 49.751 162.031 49.751L162.031 54.751ZM153.97 54.751L149.043 53.8983C148.792 55.3518 149.195 56.8424 150.145 57.9709C151.095 59.0995 152.495 59.751 153.97 59.751V54.751ZM159.26 24.1846V19.1846C156.828 19.1846 154.748 20.9351 154.334 23.3319L159.26 24.1846ZM165.264 24.1846L170.191 25.0385C170.443 23.5847 170.04 22.0939 169.09 20.9651C168.14 19.8362 166.74 19.1846 165.264 19.1846V24.1846ZM165.262 24.1993L160.335 23.3454C160.084 24.7956 160.484 26.2829 161.43 27.4109C162.375 28.539 163.77 29.1932 165.241 29.1992L165.262 24.1993ZM166.797 24.2056L166.911 19.2069C166.88 19.2062 166.849 19.2057 166.817 19.2056L166.797 24.2056ZM171.478 25.3392L173.903 20.9662L173.903 20.9662L171.478 25.3392ZM174.564 28.2153L170.352 30.9092C170.36 30.9207 170.367 30.9322 170.375 30.9437L174.564 28.2153ZM176.223 37.1165L181.171 37.8389C181.175 37.8049 181.18 37.7708 181.184 37.7367L176.223 37.1165ZM175.53 41.861L180.465 42.6644C180.47 42.6374 180.474 42.6105 180.478 42.5835L175.53 41.861ZM174.04 46.9204L169.474 44.8822L169.474 44.8822L174.04 46.9204ZM171.29 51.0351L167.69 47.5644C167.683 47.5719 167.676 47.5794 167.669 47.5869L171.29 51.0351ZM167.301 53.7853L169.265 58.3831L169.265 58.3831L167.301 53.7853ZM160.848 49.7L155.922 48.8473C155.671 50.2935 156.069 51.7767 157.009 52.9036C157.95 54.0305 159.338 54.6873 160.806 54.6998L160.848 49.7ZM162.325 49.7125L162.283 54.7124L162.283 54.7124L162.325 49.7125ZM164.379 29.2991L164.397 24.2992C161.958 24.2903 159.868 26.0428 159.452 28.4464L164.379 29.2991ZM166.524 29.307L166.709 24.3104C166.653 24.3083 166.598 24.3072 166.542 24.307L166.524 29.307ZM169.085 30.0837L165.894 33.9325C165.927 33.9606 165.962 33.9882 165.996 34.0153L169.085 30.0837ZM170.492 34.3874L175.486 34.6215L175.486 34.6215L170.492 34.3874ZM170.261 37.0535L175.209 37.7697C175.213 37.741 175.217 37.7122 175.221 37.6834L170.261 37.0535ZM169.568 41.84L164.62 41.1238C164.619 41.1311 164.618 41.1385 164.616 41.1458L169.568 41.84ZM168.497 45.8708L163.893 43.9208C163.89 43.9298 163.886 43.9387 163.882 43.9476L168.497 45.8708ZM151.322 24.1846V19.1846C148.88 19.1846 146.796 20.9486 146.391 23.357L151.322 24.1846ZM157.305 24.1846L162.235 25.0234C162.482 23.5715 162.076 22.0845 161.126 20.9592C160.176 19.8338 158.778 19.1846 157.305 19.1846V24.1846ZM147.795 45.199L142.864 44.3714C142.863 44.3772 142.862 44.3831 142.862 44.3889L147.795 45.199ZM147.082 47.7602L151.682 49.7195C151.686 49.7094 151.69 49.6993 151.695 49.6892L147.082 47.7602ZM145.633 49.5236L148.364 53.7117L148.365 53.7117L145.633 49.5236ZM143.093 50.0904L143.293 45.0944C143.273 45.0936 143.253 45.093 143.234 45.0924L143.093 50.0904ZM140.952 49.3557L137.202 52.6638C137.237 52.7027 137.272 52.7411 137.307 52.779L140.952 49.3557ZM140.196 47.5712L135.219 48.0498C135.222 48.085 135.226 48.1202 135.23 48.1554L140.196 47.5712ZM140.238 45.199L135.306 44.3762C135.292 44.4601 135.28 44.5444 135.27 44.6289L140.238 45.199ZM143.744 24.1846L148.676 25.0074C148.917 23.5575 148.509 22.0746 147.559 20.953C146.609 19.8314 145.214 19.1846 143.744 19.1846V24.1846ZM137.782 24.1846V19.1846C135.344 19.1846 133.261 20.943 132.852 23.3466L137.782 24.1846ZM134.213 45.178L129.283 44.34C129.27 44.4181 129.259 44.4966 129.249 44.5752L134.213 45.178ZM134.717 50.3633L130.048 52.1524C130.054 52.17 130.061 52.1876 130.068 52.2052L134.717 50.3633ZM137.572 53.8692L134.85 58.0635C134.86 58.0703 134.871 58.0771 134.882 58.0838L137.572 53.8692ZM142.568 55.1918L142.464 60.1907C142.477 60.191 142.49 60.1912 142.503 60.1914L142.568 55.1918ZM151.889 50.5313L156.138 53.1671C156.142 53.1613 156.145 53.1554 156.149 53.1496L151.889 50.5313ZM153.737 45.157L148.807 44.3182C148.8 44.362 148.793 44.4059 148.787 44.4499L153.737 45.157ZM129.252 39.2015L127.588 34.4864C125.641 35.1735 124.316 36.9874 124.254 39.0517C124.192 41.116 125.406 43.0059 127.309 43.8085L129.252 39.2015ZM130.222 38.796L132.415 43.2893C132.422 43.2858 132.429 43.2822 132.436 43.2786L130.222 38.796ZM130.201 39.7407L127.211 43.7488C127.237 43.7677 127.262 43.7864 127.288 43.8048L130.201 39.7407ZM132.006 42.1549L136.709 40.4567L136.709 40.4567L132.006 42.1549ZM132.405 45.5978L127.419 45.2185C127.418 45.2395 127.416 45.2605 127.415 45.2816L132.405 45.5978ZM130.83 50.6362L126.683 47.8432L126.677 47.8529L130.83 50.6362ZM127.177 53.7433L129.262 58.2879C129.274 58.2827 129.285 58.2774 129.296 58.2721L127.177 53.7433ZM121.971 54.751L122.043 49.7515C122.019 49.7511 121.995 49.751 121.971 49.751L121.971 54.751ZM111.852 54.751L106.926 53.8983C106.674 55.3518 107.077 56.8424 108.027 57.9709C108.977 59.0995 110.377 59.751 111.852 59.751V54.751ZM117.143 24.1846L117.155 19.1846C114.718 19.1788 112.631 20.9307 112.216 23.3319L117.143 24.1846ZM125.981 24.2056L126.09 19.2067C126.057 19.206 126.025 19.2057 125.993 19.2056L125.981 24.2056ZM129.487 24.7724L127.906 29.5158C127.931 29.5242 127.956 29.5323 127.981 29.5403L129.487 24.7724ZM132.216 26.3049L135.576 22.6021L135.576 22.6021L132.216 26.3049ZM133.895 28.8451L129.193 30.5433C129.2 30.5625 129.207 30.5816 129.214 30.6007L133.895 28.8451ZM134.336 32.414L139.323 32.78C139.324 32.7598 139.326 32.7397 139.327 32.7195L134.336 32.414ZM133.077 36.3188L128.933 33.5205C128.93 33.5245 128.928 33.5286 128.925 33.5327L133.077 36.3188ZM124.267 36.9848L124.25 41.9847C124.412 41.9853 124.575 41.9779 124.736 41.9627L124.267 36.9848ZM125.939 36.5287L128.175 41.0008C128.188 40.9942 128.201 40.9876 128.214 40.9809L125.939 36.5287ZM120.934 36.9732L116.007 36.1203C115.756 37.5709 116.157 39.0585 117.103 40.1865C118.05 41.3144 119.445 41.9681 120.917 41.9732L120.934 36.9732ZM122.265 29.286L122.295 24.2861C119.852 24.2712 117.755 26.0251 117.338 28.433L122.265 29.286ZM125.729 29.307L125.911 24.3103C125.86 24.3084 125.81 24.3074 125.759 24.3071L125.729 29.307ZM127.471 29.8528L130.725 26.0565L130.725 26.0565L127.471 29.8528ZM128.206 31.1754L123.285 32.0587C123.286 32.0662 123.288 32.0737 123.289 32.0812L128.206 31.1754ZM128.206 33.0438L123.253 32.3639L123.251 32.3719L128.206 33.0438ZM127.45 35.1641L123.29 32.3906C123.275 32.4137 123.26 32.437 123.244 32.4604L127.45 35.1641ZM120.164 41.4244L120.183 36.4245C117.743 36.4151 115.653 38.1676 115.237 40.5715L120.164 41.4244ZM118.731 49.698L113.804 48.845C113.553 50.2951 113.954 51.7821 114.899 52.9099C115.845 54.0377 117.239 54.6918 118.71 54.6979L118.731 49.698ZM124.49 41.4411L124.867 36.4553C124.748 36.4464 124.629 36.4416 124.51 36.4412L124.49 41.4411ZM126.065 42.1759L121.987 45.0697C122.002 45.0908 122.017 45.1118 122.033 45.1327L126.065 42.1759ZM126.569 43.7294L121.574 43.9565C121.576 43.9968 121.578 44.0371 121.581 44.0774L126.569 43.7294ZM126.506 45.5349L121.554 44.8438C121.55 44.871 121.546 44.8982 121.543 44.9254L126.506 45.5349ZM125.813 47.6552L121.508 45.1116C121.494 45.136 121.48 45.1605 121.466 45.1851L125.813 47.6552ZM124.385 49.1247L121.798 44.8461C121.783 44.8551 121.768 44.8642 121.754 44.8734L124.385 49.1247ZM122.244 49.7125L122.223 54.7125C122.286 54.7128 122.348 54.7118 122.411 54.7098L122.244 49.7125ZM29.2375 17.8642L29.2277 17.9282L39.1132 19.4371L39.123 19.3731L29.2375 17.8642ZM43.531 11.4124L33.0928 13.7383L35.2677 23.499L45.706 21.173L43.531 11.4124ZM36.5739 24.6942L46.3928 20.9673L42.8442 11.6181L33.0253 15.345L36.5739 24.6942ZM40.7197 18.2273C39.9374 18.0624 39.2546 17.6235 38.7932 17.0111L30.806 23.0282C32.7331 25.5861 35.5273 27.3523 38.6564 28.0122L40.7197 18.2273ZM47.4441 16.3581C45.5585 18.0741 43.134 18.7585 40.7627 18.2366L38.6133 28.0029C44.3619 29.268 50.0511 27.5068 54.1749 23.7538L47.4441 16.3581ZM48.3266 15.3585C48.0558 15.7297 47.7487 16.0752 47.4092 16.3902L54.2098 23.7217C55.0192 22.9709 55.7543 22.1443 56.4048 21.2527L48.3266 15.3585ZM48.5892 15.0087C48.51 15.1135 48.4262 15.2244 48.3561 15.3184L56.3753 21.2927C56.4203 21.2324 56.4805 21.1527 56.5672 21.0379L48.5892 15.0087ZM48.6105 14.9808L48.6102 14.9811L56.5463 21.0655L56.5465 21.0651L48.6105 14.9808ZM48.9045 14.6315L48.9045 14.6316L56.2525 21.4144L56.2526 21.4143L48.9045 14.6315ZM49.9105 15.1324C49.8094 14.5675 49.8339 14.1056 49.8658 13.8242C49.8989 13.5326 49.9546 13.3097 49.9923 13.1784C50.0316 13.0413 50.0689 12.9428 50.0897 12.891C50.1114 12.8368 50.1264 12.8055 50.1288 12.8004C50.1317 12.7944 50.1121 12.835 50.0567 12.9291C50.0038 13.019 49.9334 13.132 49.8447 13.2676C49.467 13.8442 48.9767 14.496 48.5896 15.0083L56.5675 21.0376C56.9249 20.5647 57.6186 19.6498 58.2103 18.7463C58.4993 18.3051 58.8508 17.7362 59.1372 17.1419C59.2791 16.8475 59.4637 16.4273 59.6052 15.9336C59.7182 15.5395 59.9677 14.5629 59.7539 13.3695L49.9105 15.1324ZM47.6214 16.3189C48.1024 16.4592 49.3289 16.8316 50.4052 17.2589C50.966 17.4816 51.3021 17.6477 51.4356 17.7271C51.5104 17.7717 51.3606 17.6947 51.1297 17.4754C51.0068 17.3588 50.7895 17.1348 50.5669 16.7955C50.3453 16.4576 50.0484 15.898 49.9114 15.1372L59.7531 13.3647C59.4486 11.6743 58.4387 10.6256 58.0145 10.2229C57.4936 9.72839 56.9475 9.37057 56.5508 9.13442C55.7412 8.65247 54.833 8.25754 54.0954 7.9647C52.575 7.36106 50.9892 6.88453 50.4211 6.71885L47.6214 16.3189ZM38.7826 17.8621C39.3017 16.5684 40.1016 15.998 41.4527 15.7283C43.074 15.4048 45.2844 15.6291 47.6056 16.3143L50.4369 6.72348C47.3099 5.80037 43.3281 5.15684 39.4956 5.92173C35.3929 6.74052 31.4774 9.21481 29.5019 14.138L38.7826 17.8621ZM38.9212 17.2598C38.9089 17.4576 38.8656 17.6519 38.7932 17.8354L29.4913 14.1646C29.1792 14.9555 28.9932 15.7907 28.9405 16.6398L38.9212 17.2598ZM35.6513 21.6596L35.9951 21.5038L31.8666 12.3958L31.5228 12.5516L35.6513 21.6596ZM29.825 20.4196L30.0876 20.6769L37.0864 13.5343L36.8238 13.277L29.825 20.4196ZM28.5519 15.5189C28.5808 15.3013 28.6391 15.089 28.7248 14.8879L37.9241 18.8087C38.1926 18.1786 38.3747 17.5147 38.4649 16.8352L28.5519 15.5189ZM23.3258 11.7361C25.2503 12.1601 26.8258 12.8517 27.7448 13.6272C28.1635 13.9806 28.3576 14.276 28.4511 14.4924C28.5326 14.6811 28.6192 14.9897 28.5484 15.5459L38.4684 16.8081C39.0714 12.0693 37.0554 8.39949 34.1942 5.9849C31.5476 3.75141 28.2144 2.57329 25.4774 1.97029L23.3258 11.7361ZM22.8895 9.66961C22.3958 10.2768 21.8572 10.6298 21.4899 10.824C21.121 11.0191 20.81 11.1151 20.6315 11.1618C20.4443 11.2109 20.3055 11.2307 20.2391 11.2387C20.2021 11.2432 20.1748 11.2455 20.1584 11.2467C20.1419 11.248 20.133 11.2483 20.1327 11.2483C20.1323 11.2483 20.1381 11.2481 20.1506 11.248C20.163 11.248 20.1805 11.2482 20.2034 11.2487C20.2498 11.2499 20.3113 11.2526 20.3884 11.2578C20.5452 11.2683 20.7367 11.2872 20.959 11.3149C21.8893 11.4311 22.9154 11.6462 23.3319 11.7374L25.4713 1.96896C24.991 1.86377 23.6001 1.56707 22.1983 1.392C21.5214 1.30747 20.6441 1.22489 19.7905 1.25412C19.373 1.26842 18.7614 1.31436 18.0985 1.48794C17.5651 1.62762 16.1995 2.04632 15.1306 3.36094L22.8895 9.66961ZM24.0705 9.47387C23.9942 8.92742 23.9065 8.28557 23.8687 7.75207C23.8489 7.47306 23.8551 7.37983 23.8525 7.42205C23.8514 7.44038 23.8411 7.62579 23.7752 7.90345C23.7408 8.0487 23.6768 8.28071 23.5588 8.55989C23.4445 8.83021 23.2361 9.24905 22.8695 9.6941L15.1507 3.33646C14.3917 4.25789 14.1366 5.21038 14.0455 5.59436C13.9312 6.07566 13.8898 6.50877 13.8714 6.80743C13.8343 7.41031 13.8617 8.00827 13.8937 8.45951C13.9595 9.3865 14.0974 10.3613 14.1665 10.856L24.0705 9.47387ZM24.1213 9.84484C24.1064 9.73078 24.0874 9.59516 24.0705 9.47385L14.1665 10.856C14.1856 10.993 14.1977 11.0803 14.2059 11.1425L24.1213 9.84484ZM24.3454 10.8575C24.2403 10.5359 24.1666 10.2062 24.1249 9.87286L14.2023 11.1145C14.3233 12.0821 14.5369 13.0358 14.8397 13.9628L24.3454 10.8575ZM25.6997 13.0536C25.0737 12.4428 24.6143 11.6973 24.3545 10.8857L14.8306 13.9346C15.5921 16.3134 16.9284 18.4668 18.7159 20.2109L25.6997 13.0536ZM27.9517 14.3764C27.0985 14.1207 26.326 13.6647 25.6997 13.0536L18.7159 20.2109C20.5032 21.9548 22.6887 23.2384 25.0807 23.9554L27.9517 14.3764ZM29.3508 14.2987C28.9253 14.4891 28.4325 14.5225 27.9701 14.3819L25.0623 23.9498C27.822 24.7885 30.7983 24.6063 33.4347 23.4268L29.3508 14.2987ZM21.883 15.3913L27.5821 22.0999L35.2034 15.6256L29.5043 8.91691L21.883 15.3913ZM35.3867 14.0362L29.0009 8.40419L22.3863 15.904L28.7721 21.536L35.3867 14.0362ZM37.0146 18.5899L37.0221 18.5405L27.1366 17.0317L27.1291 17.0812L37.0146 18.5899ZM36.3305 22.6668C36.5661 21.3208 36.8118 19.918 37.0145 18.5901L27.1291 17.081C26.9458 18.2815 26.7199 19.5733 26.4802 20.9427L36.3305 22.6668ZM36.3197 22.7264L36.3197 22.7262L26.491 20.8833L26.491 20.8835L36.3197 22.7264ZM35.6161 26.9526C35.8159 25.6084 36.0673 24.1706 36.3305 22.667L26.4802 20.9429C26.2217 22.4199 25.947 23.9878 25.7248 25.482L35.6161 26.9526ZM30.5803 55.8284L35.5961 27.0766L25.7448 25.358L20.7291 54.1098L30.5803 55.8284ZM27.3761 49.9691H25.6547V59.9691H27.3761V49.9691ZM28.0479 49.9691H27.3761V59.9691H28.0479V49.9691ZM40.2451 49.9691H28.0479V59.9691H40.2451V49.9691ZM35.7501 51.8041L35.3302 54.0504L45.16 55.8878L45.5798 53.6415L35.7501 51.8041ZM28.4382 57.7228H40.665V47.7228H28.4382V57.7228ZM27.9181 26.5105L23.5121 51.8668L33.3644 53.5788L37.7704 28.2225L27.9181 26.5105ZM28.334 24.1188C28.1995 24.945 28.0666 25.7053 27.9275 26.458L37.761 28.275C37.9123 27.4563 38.0576 26.6255 38.2042 25.7246L28.334 24.1188ZM28.4331 23.5467L28.3429 24.0657L38.1952 25.7777L38.2854 25.2587L28.4331 23.5467ZM33.3524 29.4027H33.3593V19.4027H33.3524V29.4027ZM29.1996 18.0422C28.9 20.3686 28.6512 22.122 28.4139 23.6209L38.2909 25.1845C38.5477 23.5619 38.8102 21.7079 39.1177 19.3195L29.1996 18.0422ZM34.9248 13.7399L34.913 13.7381L33.4044 23.6236L33.4162 23.6254L34.9248 13.7399ZM66.5428 43.5692L67.5925 36.9563L57.7162 35.3886L56.6665 42.0015L66.5428 43.5692ZM65.0915 49.1337C65.7713 47.3153 66.2578 45.4477 66.548 43.5357L56.6613 42.035C56.4756 43.2581 56.1645 44.4555 55.7246 45.6321L65.0915 49.1337ZM62.132 54.4801C63.384 52.8677 64.3657 51.0752 65.0915 49.1337L55.7246 45.6321C55.3307 46.6857 54.8289 47.5803 54.2335 48.3472L62.132 54.4801ZM57.0549 58.6802C59.0512 57.6613 60.7574 56.2504 62.132 54.4801L54.2335 48.3472C53.7606 48.9561 53.1996 49.4207 52.5087 49.7733L57.0549 58.6802ZM49.922 60.1911C52.4003 60.2483 54.8347 59.8134 57.0549 58.6802L52.5087 49.7733C52.0417 50.0117 51.3131 50.2206 50.1527 50.1938L49.922 60.1911ZM43.0495 58.1524C45.1319 59.5674 47.5294 60.1318 49.9134 60.1909L50.1612 50.194C49.1582 50.1691 48.7707 49.9498 48.6697 49.8812L43.0495 58.1524ZM38.8691 53.2505C39.8126 55.2296 41.2104 56.8867 43.0247 58.1355L48.6945 49.8982C48.3535 49.6635 48.0998 49.3751 47.8957 48.947L38.8691 53.2505ZM37.3351 47.5932C37.5263 49.5626 38.0229 51.4551 38.8595 53.2302L47.9053 48.9673C47.5942 48.3071 47.377 47.5405 47.2883 46.6268L37.3351 47.5932ZM37.4141 42.1593C37.1858 43.9676 37.1592 45.7812 37.3351 47.5932L47.2883 46.6269C47.1843 45.5557 47.1997 44.4862 47.3354 43.4115L37.4141 42.1593ZM38.4858 35.37L37.4362 42.004L47.3133 43.5668L48.3629 36.9329L38.4858 35.37ZM39.9376 29.8451C39.2615 31.6536 38.7744 33.5025 38.483 35.3878L48.3657 36.9151C48.5502 35.7213 48.8609 34.5332 49.3044 33.3467L39.9376 29.8451ZM42.918 24.4987C41.674 26.1008 40.6903 27.8802 39.952 29.8068L49.29 33.3849C49.6994 32.3165 50.2131 31.4088 50.8166 30.6316L42.918 24.4987ZM47.9762 20.2873C45.99 21.3118 44.2966 22.7292 42.923 24.4923L50.8116 30.638C51.3134 29.9939 51.8873 29.5219 52.5603 29.1748L47.9762 20.2873ZM55.0879 18.7667C52.6225 18.7089 50.2051 19.1496 47.9951 20.2776L52.5413 29.1845C53.0185 28.9409 53.7361 28.7378 54.8536 28.764L55.0879 18.7667ZM61.9795 20.8054C59.8908 19.3861 57.4825 18.8256 55.0937 18.7669L54.8478 28.7638C55.8739 28.7891 56.2647 29.0123 56.3593 29.0766L61.9795 20.8054ZM66.181 25.7074C65.2296 23.7117 63.8128 22.051 61.9795 20.8054L56.3593 29.0766C56.7094 29.3145 56.9581 29.5992 57.1543 30.0108L66.181 25.7074ZM67.6983 31.3916C67.5248 29.4054 67.0331 27.4948 66.181 25.7074L57.1543 30.0108C57.4498 30.6305 57.6579 31.3651 57.7363 32.2621L67.6983 31.3916ZM67.6157 36.7926C67.8428 34.9757 67.87 33.1571 67.6939 31.3436L57.7407 32.31C57.8446 33.3796 57.8297 34.4581 57.6929 35.5523L67.6157 36.7926ZM55.342 35.2956L54.2923 42.0135L64.1725 43.5573L65.2221 36.8394L55.342 35.2956ZM55.4323 32.8891C55.465 33.7943 55.4258 34.6374 55.3237 35.4235L65.2404 36.7114C65.4183 35.3423 65.477 33.9461 65.4258 32.5279L55.4323 32.8891ZM55.1331 31.2375C55.2916 31.6642 55.4074 32.2015 55.4323 32.8892L65.4258 32.5279C65.3667 30.8923 65.0766 29.2883 64.5074 27.7556L55.1331 31.2375ZM55.0128 31.0117C55.0323 31.0269 55.0427 31.037 55.0472 31.0417C55.0516 31.0462 55.0539 31.0493 55.0559 31.052C55.057 31.0536 55.077 31.0805 55.104 31.1572L64.5364 27.8359C63.8761 25.9605 62.7335 24.3451 61.1428 23.1109L55.0128 31.0117ZM54.6708 31.0513C54.9968 31.0613 55.153 31.1028 55.1869 31.1133C55.2103 31.1205 55.1167 31.094 54.9795 30.9857L61.176 23.1369C59.2864 21.6451 57.0495 21.1194 54.9768 21.056L54.6708 31.0513ZM53.4643 31.2386C53.5827 31.1739 53.9186 31.0296 54.6796 31.0516L54.968 21.0557C52.8179 20.9937 50.6486 21.3812 48.6676 22.4641L53.4643 31.2386ZM52.462 32.1049C52.7398 31.7237 53.0485 31.4607 53.4189 31.2631L48.713 22.4396C46.9841 23.3617 45.5294 24.6382 44.3796 26.2164L52.462 32.1049ZM51.4472 34.0866C51.7152 33.3093 52.0586 32.6586 52.462 32.1049L44.3796 26.2164C43.3555 27.6221 42.5652 29.1687 41.9935 30.8267L51.4472 34.0866ZM50.7651 36.8531C50.9005 35.9261 51.1249 35.0107 51.4413 34.1035L41.9993 30.8098C41.4761 32.3097 41.0986 33.8437 40.8701 35.4078L50.7651 36.8531ZM49.7077 43.6016L50.7573 36.9047L40.8779 35.3562L39.8283 42.0531L49.7077 43.6016ZM49.6177 46.0057C49.585 45.1005 49.6242 44.2575 49.7263 43.4713L39.8096 42.1834C39.6318 43.5526 39.573 44.9488 39.6243 46.3669L49.6177 46.0057ZM49.9532 47.7792C49.7712 47.2551 49.6496 46.6509 49.6151 45.9427L39.6269 46.4299C39.7044 48.017 39.9887 49.5681 40.5064 51.0593L49.9532 47.7792ZM50.1124 47.9845C50.0438 47.9292 49.9875 47.871 49.9249 47.6999L40.5347 51.1386C41.1999 52.955 42.3052 54.5342 43.8322 55.7665L50.1124 47.9845ZM50.3808 47.9066C50.0753 47.8971 49.9308 47.8573 49.9017 47.8481C49.8831 47.8422 49.9634 47.8662 50.0792 47.958L43.8653 55.793C45.7479 57.2861 47.9729 57.8369 50.0717 57.9018L50.3808 47.9066ZM51.6521 47.7157C51.5305 47.7805 51.1728 47.9292 50.369 47.9062L50.0835 57.9021C52.2188 57.9632 54.3803 57.594 56.358 56.5392L51.6521 47.7157ZM52.609 46.8529C52.3237 47.2444 52.0002 47.5251 51.6067 47.7402L56.4034 56.5147C58.1093 55.5821 59.5491 54.3093 60.6914 52.7414L52.609 46.8529ZM53.5918 44.9035C53.3387 45.6543 53.0022 46.3054 52.5893 46.8802L60.7111 52.7142C61.7258 51.3015 62.509 49.7553 63.0676 48.0989L53.5918 44.9035ZM54.2838 42.0706C54.1473 43.0151 53.9214 43.9474 53.6028 44.8712L63.0566 48.1312C63.5777 46.6197 63.9536 45.0749 64.1811 43.5002L54.2838 42.0706ZM79.3109 35.3886L78.2612 42.0015L88.1376 43.5692L89.1872 36.9563L79.3109 35.3886ZM79.3354 32.31C79.4393 33.3796 79.4244 34.4581 79.2877 35.5523L89.2104 36.7926C89.4376 34.9757 89.4647 33.1571 89.2886 31.3437L79.3354 32.31ZM78.749 30.0108C79.0445 30.6305 79.2526 31.3651 79.331 32.2621L89.2931 31.3916C89.1195 29.4054 88.6279 27.4948 87.7757 25.7074L78.749 30.0108ZM77.9541 29.0766C78.3041 29.3145 78.5528 29.5992 78.749 30.0108L87.7757 25.7074C86.8243 23.7117 85.4075 22.051 83.5743 20.8054L77.9541 29.0766ZM76.4426 28.7638C77.4686 28.7891 77.8594 29.0123 77.9541 29.0766L83.5743 20.8054C81.4856 19.3861 79.0773 18.8256 76.6884 18.7669L76.4426 28.7638ZM74.1361 29.1845C74.6132 28.9409 75.3309 28.7378 76.4483 28.764L76.6826 18.7667C74.2172 18.7089 71.7999 19.1496 69.5899 20.2776L74.1361 29.1845ZM72.4063 30.638C72.9081 29.9939 73.482 29.5219 74.155 29.1748L69.5709 20.2873C67.5848 21.3118 65.8913 22.7292 64.5177 24.4923L72.4063 30.638ZM70.8847 33.3849C71.2941 32.3165 71.8079 31.4088 72.4113 30.6316L64.5128 24.4987C63.2688 26.1008 62.285 27.8802 61.5468 29.8068L70.8847 33.3849ZM69.9604 36.9151C70.1449 35.7213 70.4556 34.5332 70.8992 33.3467L61.5323 29.8451C60.8562 31.6536 60.3691 33.5025 60.0778 35.3878L69.9604 36.9151ZM68.908 43.5668L69.9577 36.9329L60.0806 35.37L59.0309 42.004L68.908 43.5668ZM68.8831 46.6269C68.7791 45.5557 68.7944 44.4862 68.9301 43.4115L59.0088 42.1593C58.7806 43.9676 58.7539 45.7812 58.9299 47.5932L68.8831 46.6269ZM69.5 48.9673C69.1889 48.3071 68.9718 47.5405 68.8831 46.6268L58.9299 47.5932C59.1211 49.5626 59.6177 51.4551 60.4542 53.2302L69.5 48.9673ZM70.2893 49.8982C69.9483 49.6635 69.6945 49.3751 69.4905 48.947L60.4638 53.2505C61.4073 55.2296 62.8051 56.8867 64.6194 58.1355L70.2893 49.8982ZM71.756 50.194C70.753 50.1691 70.3654 49.9498 70.2645 49.8812L64.6442 58.1524C66.7266 59.5674 69.1242 60.1318 71.5081 60.1909L71.756 50.194ZM74.1034 49.7733C73.6365 50.0117 72.9079 50.2206 71.7474 50.1938L71.5167 60.1911C73.9951 60.2483 76.4294 59.8134 78.6496 58.6802L74.1034 49.7733ZM75.8282 48.3472C75.3554 48.9561 74.7943 49.4207 74.1034 49.7733L78.6496 58.6802C80.6459 57.6613 82.3522 56.2504 83.7267 54.4801L75.8282 48.3472ZM77.3193 45.6321C76.9255 46.6857 76.4236 47.5803 75.8282 48.3472L83.7267 54.4802C84.9787 52.8677 85.9604 51.0752 86.6862 49.1337L77.3193 45.6321ZM78.256 42.035C78.0704 43.2581 77.7592 44.4555 77.3193 45.6321L86.6862 49.1337C87.366 47.3153 87.8526 45.4477 88.1428 43.5357L78.256 42.035ZM85.7672 43.5573L86.8169 36.8394L76.9367 35.2956L75.8871 42.0135L85.7672 43.5573ZM84.6513 48.1312C85.1725 46.6197 85.5483 45.0749 85.7758 43.5002L75.8785 42.0706C75.7421 43.0151 75.5161 43.9474 75.1976 44.8712L84.6513 48.1312ZM82.3059 52.7142C83.3206 51.3015 84.1037 49.7553 84.6623 48.0989L75.1865 44.9035C74.9334 45.6543 74.5969 46.3054 74.184 46.8802L82.3059 52.7142ZM77.9981 56.5147C79.704 55.5821 81.1439 54.3093 82.2861 52.7414L74.2038 46.8529C73.9185 47.2444 73.5949 47.5251 73.2014 47.7402L77.9981 56.5147ZM71.6782 57.9021C73.8135 57.9632 75.975 57.594 77.9527 56.5392L73.2469 47.7157C73.1252 47.7805 72.7675 47.9292 71.9638 47.9062L71.6782 57.9021ZM65.46 55.793C67.3426 57.2861 69.5677 57.8369 71.6664 57.9018L71.9755 47.9066C71.67 47.8971 71.5255 47.8573 71.4964 47.8481C71.4778 47.8422 71.5581 47.8662 71.674 47.958L65.46 55.793ZM62.1295 51.1386C62.7946 52.955 63.9 54.5342 65.4269 55.7665L71.7071 47.9845C71.6385 47.9292 71.5823 47.871 71.5196 47.6999L62.1295 51.1386ZM61.2217 46.4299C61.2991 48.017 61.5834 49.5681 62.1012 51.0593L71.5479 47.7792C71.3659 47.2551 71.2443 46.6509 71.2098 45.9427L61.2217 46.4299ZM61.4043 42.1834C61.2265 43.5526 61.1677 44.9488 61.219 46.3669L71.2125 46.0057C71.1798 45.1005 71.219 44.2575 71.321 43.4713L61.4043 42.1834ZM62.4727 35.3562L61.423 42.0531L71.3024 43.6016L72.352 36.9047L62.4727 35.3562ZM63.5941 30.8098C63.0708 32.3097 62.6933 33.8436 62.4649 35.4078L72.3599 36.8531C72.4953 35.9261 72.7196 35.0108 73.0361 34.1035L63.5941 30.8098ZM65.9744 26.2164C64.9502 27.6221 64.1599 29.1687 63.5882 30.8267L73.0419 34.0866C73.31 33.3093 73.6533 32.6586 74.0567 32.1049L65.9744 26.2164ZM70.3078 22.4396C68.5788 23.3617 67.1241 24.6382 65.9744 26.2164L74.0567 32.1049C74.3345 31.7237 74.6433 31.4607 75.0137 31.2631L70.3078 22.4396ZM76.5627 21.0557C74.4126 20.9937 72.2433 21.3812 70.2624 22.4641L75.0591 31.2386C75.1775 31.1739 75.5133 31.0296 76.2744 31.0516L76.5627 21.0557ZM82.7707 23.1369C80.8812 21.6451 78.6442 21.1194 76.5715 21.056L76.2655 31.0513C76.5915 31.0613 76.7478 31.1028 76.7816 31.1133C76.805 31.1205 76.7114 31.094 76.5743 30.9857L82.7707 23.1369ZM86.1311 27.8359C85.4708 25.9605 84.3283 24.3451 82.7375 23.1109L76.6075 31.0117C76.627 31.0269 76.6374 31.037 76.6419 31.0417C76.6463 31.0462 76.6487 31.0493 76.6506 31.052C76.6518 31.0536 76.6718 31.0805 76.6988 31.1572L86.1311 27.8359ZM87.0205 32.5279C86.9614 30.8923 86.6714 29.2883 86.1021 27.7556L76.7278 31.2375C76.8863 31.6642 77.0022 32.2015 77.027 32.8892L87.0205 32.5279ZM86.8352 36.7114C87.013 35.3423 87.0718 33.9461 87.0205 32.5279L77.027 32.8891C77.0597 33.7943 77.0205 34.6374 76.9184 35.4235L86.8352 36.7114ZM91.6311 29.1846H92.5968V19.1846H91.6311V29.1846ZM90.3295 29.1846H91.6311V19.1846H90.3295V29.1846ZM89.5738 29.1846H90.3295V19.1846H89.5738V29.1846ZM89.1671 55.6102L94.4994 25.0438L84.6482 23.3253L79.3158 53.8917L89.1671 55.6102ZM86.6137 49.751H84.2415V59.751H86.6137V49.751ZM83.9977 40.6848L81.6884 53.8896L91.539 55.6123L93.8482 42.4074L83.9977 40.6848ZM86.0647 27.4281L83.9827 40.7755L93.8632 42.3167L95.9452 28.9693L86.0647 27.4281ZM100.404 53.9213L95.9357 27.369L86.0743 29.0284L90.5422 55.5806L100.404 53.9213ZM97.3203 49.751H95.4729V59.751H97.3203V49.751ZM106.381 26.1729L92.8729 52.4661L101.768 57.0358L115.276 30.7425L106.381 26.1729ZM113.296 42.288L115.741 29.3886L105.916 27.5268L103.471 40.4263L113.296 42.288ZM110.98 55.608L113.31 42.2142L103.458 40.5001L101.128 53.8939L110.98 55.608ZM108.426 49.751H106.054V59.751H108.426V49.751ZM108.811 23.3286L103.5 53.895L113.352 55.6069L118.663 25.0406L108.811 23.3286ZM113.023 29.1846H113.737V19.1846H113.023V29.1846ZM111.638 29.1846H113.023V19.1846H111.638V29.1846ZM110.567 29.1846H111.638V19.1846H110.567V29.1846ZM101.399 53.2389L115.024 26.4513L106.111 21.9178L92.4858 48.7054L101.399 53.2389ZM87.6613 24.9852L92.007 51.7728L101.878 50.1715L97.5323 23.3839L87.6613 24.9852ZM26.7711 36.8387C25.6446 35.5715 24.2481 34.694 22.7168 34.1702L19.4804 43.632C19.5091 43.6418 19.4892 43.6383 19.4415 43.6073C19.3922 43.5751 19.3406 43.5314 19.297 43.4824L26.7711 36.8387ZM29.3045 41.5833C28.8449 39.7931 27.987 38.1525 26.7054 36.7663L19.3627 43.5548C19.4527 43.6522 19.5465 43.789 19.6187 44.0702L29.3045 41.5833ZM29.719 46.3482C29.8463 44.7354 29.7081 43.1338 29.3004 41.5673L19.6228 44.0861C19.7469 44.563 19.7906 45.0468 19.75 45.5612L29.719 46.3482ZM27.5944 53.1248C28.8271 51.0703 29.5025 48.7916 29.7149 46.3965L19.7541 45.5129C19.6586 46.5887 19.3823 47.3751 19.0195 47.9798L27.5944 53.1248ZM22.4714 58.047C24.611 56.878 26.3404 55.2149 27.5944 53.1248L19.0195 47.9798C18.6781 48.5489 18.252 48.9571 17.6765 49.2715L22.4714 58.047ZM15.3531 59.7508C17.8519 59.7705 20.2838 59.2548 22.4906 58.0365L17.6574 49.2821C17.177 49.5473 16.4878 49.7594 15.4318 49.7511L15.3531 59.7508ZM9.09442 59.751H15.3924V49.751H9.09442V59.751ZM7.60389 59.751H9.09442V49.751H7.60389V59.751ZM6.72217 59.751H7.60389V49.751H6.72217V59.751ZM7.10731 23.3286L1.79599 53.895L11.6484 55.6069L16.9597 25.0406L7.10731 23.3286ZM19.3955 19.2056L12.0478 19.1846L12.0192 29.1845L19.3669 29.2055L19.3955 19.2056ZM24.3872 20.151C22.819 19.5237 21.1608 19.2461 19.4988 19.2069L19.2636 29.2042C19.9809 29.2211 20.422 29.3353 20.6732 29.4358L24.3872 20.151ZM28.5604 23.0544C27.3901 21.717 25.9447 20.7645 24.3628 20.1413L20.6976 29.4454C20.9631 29.55 21.0292 29.6332 21.0346 29.6394L28.5604 23.0544ZM30.9162 27.541C30.4851 25.8885 29.7092 24.3363 28.5217 23.0106L21.0733 29.6831C21.0894 29.7011 21.1672 29.7863 21.24 30.0652L30.9162 27.541ZM31.3389 32.3841C31.4541 30.732 31.3431 29.0662 30.8936 27.4576L21.2625 30.1486C21.3449 30.4434 21.4158 30.9329 21.3631 31.6881L31.3389 32.3841ZM29.5675 38.0377C30.5712 36.3338 31.137 34.4678 31.3272 32.5229L21.3747 31.5493C21.3131 32.1796 21.1511 32.6229 20.9512 32.9623L29.5675 38.0377ZM25.6953 42.1703C27.3099 41.0862 28.6231 39.6796 29.5932 37.9935L20.9254 33.0065C20.7199 33.3638 20.4656 33.6366 20.1209 33.8681L25.6953 42.1703ZM22.7138 43.633C23.7503 43.2792 24.7348 42.8018 25.654 42.1977L20.1622 33.8407C19.9658 33.9697 19.7439 34.0802 19.4834 34.1692L22.7138 43.633ZM18.2997 32.6864C18.1575 32.7575 17.9003 32.8491 17.4391 32.8686L17.8609 42.8597C19.547 42.7885 21.2136 42.4098 22.7719 41.6306L18.2997 32.6864ZM18.7058 32.3486C18.6142 32.486 18.5153 32.58 18.3258 32.6734L22.7459 41.6435C24.4877 40.7852 25.9423 39.5217 27.0263 37.8956L18.7058 32.3486ZM18.9568 31.4625C18.9081 32.0046 18.7789 32.2399 18.7158 32.3337L27.0163 37.9106C28.1569 36.2129 28.7415 34.3069 28.9167 32.3578L18.9568 31.4625ZM18.9782 30.8344C18.9292 30.7075 19.0192 30.836 18.9616 31.4126L28.9119 32.4077C29.0782 30.745 28.9723 28.9561 28.3075 27.2337L18.9782 30.8344ZM19.55 31.4604C19.443 31.3966 19.3036 31.2878 19.1734 31.1291C19.044 30.9713 18.9738 30.8254 18.9415 30.7362L28.3442 27.3318C27.6654 25.457 26.4102 23.9079 24.6707 22.8709L19.55 31.4604ZM19.1166 31.4486C19.4118 31.4593 19.5771 31.4917 19.642 31.5082C19.7035 31.5238 19.6421 31.5166 19.5133 31.4382L24.7074 22.893C23.0327 21.8751 21.1759 21.5165 19.4778 21.4551L19.1166 31.4486ZM14.008 31.4308L19.2773 31.4518L19.3171 21.4519L14.0478 21.4309L14.008 31.4308ZM16.9638 38.7117L18.9537 27.289L9.10205 25.5728L7.11217 36.9955L16.9638 38.7117ZM13.918 32.8603L12.0559 32.8536L12.0201 42.8536L13.8823 42.8602L13.918 32.8603ZM8.999 36.8707L8.9972 36.8797L18.803 38.8408L18.8048 38.8318L8.999 36.8707ZM17.6672 32.8642L13.9191 32.8513L13.8847 42.8512L17.6328 42.8641L17.6672 32.8642ZM15.5142 47.5257L9.50244 47.5054L9.46877 57.5054L15.4806 57.5256L15.5142 47.5257ZM16.4386 47.3447C16.3238 47.4103 16.0641 47.5257 15.4974 47.5257V57.5257C17.5339 57.5257 19.5555 57.0811 21.4 56.0271L16.4386 47.3447ZM16.9831 46.7832C16.8239 47.0485 16.6437 47.2243 16.3923 47.3715L21.4464 56.0003C23.1544 54.9999 24.5416 53.6222 25.5581 51.9281L16.9831 46.7832ZM17.4132 45.4296C17.3446 46.0535 17.1832 46.457 17.0102 46.7386L25.531 51.9727C26.5616 50.2949 27.142 48.4451 27.3533 46.5219L17.4132 45.4296ZM17.3447 44.5152C17.4072 44.7341 17.4503 45.0435 17.4067 45.4919L27.3598 46.4595C27.5121 44.8926 27.4012 43.3125 26.9599 41.768L17.3447 44.5152ZM17.6138 44.8599C17.5413 44.801 17.4665 44.7195 17.4071 44.6268C17.3496 44.537 17.3352 44.4817 17.3391 44.4953L26.9656 41.7879C26.4563 39.9773 25.4535 38.3449 23.9197 37.0987L17.6138 44.8599ZM17.8509 45.0703C18.0364 45.0796 18.0714 45.1032 18.0034 45.0801C17.9247 45.0535 17.7599 44.9815 17.5739 44.8271L23.9596 37.1315C22.2443 35.7082 20.2133 35.176 18.3503 35.0828L17.8509 45.0703ZM13.4384 45.0555L18.078 45.0765L18.1232 35.0766L13.4837 35.0556L13.4384 45.0555ZM11.6544 45.0556H13.461V35.0556H11.6544V45.0556ZM14.4114 53.3635L16.5802 40.9137L6.72859 39.1975L4.55979 51.6473L14.4114 53.3635ZM211.674 37.1143L209.574 23.4266L199.69 24.9426L201.789 38.6303L211.674 37.1143ZM209.127 21.943L202.262 35.6307L211.201 40.1138L218.066 26.4261L209.127 21.943ZM220.356 19.1846H213.596V29.1846H220.356V19.1846ZM213.127 46.4624L224.673 26.7076L216.04 21.6615L204.493 41.4163L213.127 46.4624ZM211.891 55.5931L213.739 44.7815L203.881 43.0972L202.034 53.9088L211.891 55.5931ZM200.874 59.751H206.963V49.751H200.874V59.751ZM197.944 42.4899L195.949 53.8893L205.8 55.6126L207.794 44.2132L197.944 42.4899ZM193.469 25.3357L198.003 44.5027L207.734 42.2004L203.2 23.0334L193.469 25.3357ZM204.632 19.1846H198.334V29.1846H204.632V19.1846ZM183.007 49.751H180.949V59.751H183.007V49.751ZM186.311 49.1874C185.506 49.5313 184.449 49.7611 183.042 49.7511L182.971 59.7508C185.51 59.7688 187.966 59.3548 190.24 58.3831L186.311 49.1874ZM188.644 47.5869C188.007 48.2553 187.246 48.7878 186.311 49.1874L190.24 58.3831C192.384 57.4671 194.283 56.1662 195.885 54.4834L188.644 47.5869ZM190.449 44.8822C189.974 45.9471 189.376 46.8276 188.665 47.5644L195.864 54.5058C197.421 52.8914 198.656 51.0288 199.58 48.9586L190.449 44.8822ZM191.57 41.0576C191.341 42.465 190.962 43.7336 190.449 44.8822L199.58 48.9587C200.467 46.9723 201.082 44.8678 201.44 42.6644L191.57 41.0576ZM192.251 36.3941L191.558 41.1386L201.453 42.5834L202.146 37.8389L192.251 36.3941ZM192.188 33.1676C192.362 34.1615 192.391 35.2634 192.237 36.4963L202.159 37.7367C202.425 35.6107 202.398 33.5075 202.04 31.4504L192.188 33.1676ZM191.35 30.9437C191.736 31.5371 192.029 32.2561 192.188 33.1676L202.04 31.4504C201.667 29.3109 200.911 27.3007 199.73 25.4869L191.35 30.9437ZM190.029 29.7122C190.614 30.0362 191.019 30.4269 191.327 30.9092L199.752 25.5214C198.521 23.5965 196.869 22.0698 194.878 20.9662L190.029 29.7122ZM187.658 29.2043C188.877 29.2322 189.603 29.4757 190.029 29.7122L194.878 20.9662C192.729 19.7752 190.334 19.2629 187.887 19.2069L187.658 29.2043ZM186.216 29.1992L187.752 29.2055L187.793 19.2056L186.257 19.1993L186.216 29.1992ZM181.313 23.3307L181.31 23.3454L191.164 25.0532L191.166 25.0385L181.313 23.3307ZM182.65 29.1846H186.24V19.1846H182.65V29.1846ZM180.235 29.1846H182.65V19.1846H180.235V29.1846ZM179.872 55.6037L185.162 25.0373L175.309 23.3319L170.018 53.8983L179.872 55.6037ZM177.443 49.751H174.945V59.751H177.443V49.751ZM180.949 49.751H177.443V59.751H180.949V49.751ZM183.343 44.7127L181.866 44.7002L181.781 54.6998L183.258 54.7124L183.343 44.7127ZM184.362 44.6152C184.516 44.5052 184.347 44.7212 183.342 44.7127L183.258 54.7124C185.585 54.7319 188.061 54.2621 190.174 52.7525L184.362 44.6152ZM184.857 43.9476C184.704 44.3148 184.538 44.4891 184.362 44.6152L190.174 52.7525C191.957 51.479 193.261 49.778 194.088 47.7939L184.857 43.9476ZM185.592 41.1458C185.432 42.2828 185.176 43.1942 184.868 43.9208L194.077 47.8207C194.777 46.168 195.234 44.3922 195.495 42.5342L185.592 41.1458ZM186.288 36.3373L185.595 41.1238L195.492 42.5562L196.184 37.7697L186.288 36.3373ZM186.472 34.1532C186.437 34.9178 186.371 35.6745 186.276 36.4236L196.196 37.6834C196.325 36.6691 196.413 35.6483 196.461 34.6215L186.472 34.1532ZM186.396 33.165C186.449 33.369 186.494 33.6859 186.472 34.1532L196.461 34.6215C196.523 33.2974 196.415 31.9628 196.076 30.6553L186.396 33.165ZM186.971 34.0153C186.842 33.9139 186.706 33.7713 186.591 33.5929C186.477 33.4167 186.421 33.2613 186.396 33.165L196.076 30.6553C195.618 28.8902 194.638 27.322 193.149 26.1521L186.971 34.0153ZM187.314 34.3035C187.562 34.3127 187.616 34.3411 187.539 34.3174C187.451 34.291 187.184 34.1941 186.869 33.9325L193.252 26.2349C191.489 24.7728 189.374 24.373 187.684 24.3104L187.314 34.3035ZM185.336 34.2991L187.481 34.3069L187.517 24.307L185.373 24.2992L185.336 34.2991ZM186.75 50.5527L190.281 30.1518L180.428 28.4464L176.897 48.8473L186.75 50.5527ZM159.974 59.751H162.031V49.751H159.974V59.751ZM156.468 59.751H159.974V49.751H156.468V59.751ZM153.97 59.751H156.468V49.751H153.97V59.751ZM154.334 23.3319L149.043 53.8983L158.897 55.6037L164.187 25.0373L154.334 23.3319ZM161.675 19.1846H159.26V29.1846H161.675V19.1846ZM165.264 19.1846H161.675V29.1846H165.264V19.1846ZM170.188 25.0532L170.191 25.0385L160.338 23.3307L160.335 23.3454L170.188 25.0532ZM166.817 19.2056L165.282 19.1993L165.241 29.1992L166.776 29.2055L166.817 19.2056ZM173.903 20.9662C171.754 19.7752 169.359 19.2629 166.911 19.2069L166.682 29.2043C167.902 29.2322 168.628 29.4757 169.054 29.7122L173.903 20.9662ZM178.777 25.5214C177.546 23.5965 175.893 22.0698 173.903 20.9662L169.054 29.7122C169.639 30.0362 170.044 30.4269 170.352 30.9092L178.777 25.5214ZM181.065 31.4504C180.692 29.311 179.936 27.3008 178.754 25.4869L170.375 30.9437C170.761 31.5371 171.054 32.256 171.213 33.1676L181.065 31.4504ZM181.184 37.7367C181.45 35.6107 181.423 33.5075 181.065 31.4504L171.213 33.1676C171.387 34.1616 171.416 35.2634 171.262 36.4963L181.184 37.7367ZM180.478 42.5835L181.171 37.8389L171.275 36.3941L170.583 41.1386L180.478 42.5835ZM178.605 48.9587C179.492 46.9723 180.107 44.8678 180.465 42.6644L170.595 41.0577C170.366 42.4651 169.987 43.7336 169.474 44.8822L178.605 48.9587ZM174.889 54.5058C176.446 52.8914 177.681 51.0288 178.605 48.9587L169.474 44.8822C168.999 45.9471 168.401 46.8276 167.69 47.5644L174.889 54.5058ZM169.265 58.3831C171.409 57.4671 173.308 56.1662 174.91 54.4834L167.669 47.5869C167.032 48.2553 166.271 48.7878 165.336 49.1874L169.265 58.3831ZM161.996 59.7508C164.535 59.7688 166.991 59.3548 169.265 58.3831L165.336 49.1874C164.531 49.5313 163.474 49.7611 162.067 49.7511L161.996 59.7508ZM160.806 54.6998L162.283 54.7124L162.368 44.7127L160.891 44.7002L160.806 54.6998ZM159.452 28.4464L155.922 48.8473L165.775 50.5527L169.306 30.1518L159.452 28.4464ZM166.542 24.307L164.397 24.2992L164.361 34.2991L166.506 34.3069L166.542 24.307ZM172.277 26.2349C170.514 24.7728 168.399 24.373 166.709 24.3104L166.339 34.3035C166.587 34.3127 166.641 34.3411 166.563 34.3174C166.476 34.291 166.209 34.1941 165.894 33.9325L172.277 26.2349ZM175.101 30.6553C174.643 28.8902 173.663 27.322 172.174 26.1521L165.996 34.0153C165.867 33.9139 165.73 33.7713 165.616 33.5929C165.502 33.4167 165.446 33.2613 165.421 33.165L175.101 30.6553ZM175.486 34.6215C175.548 33.2974 175.44 31.9628 175.101 30.6553L165.421 33.165C165.474 33.369 165.519 33.6859 165.497 34.1532L175.486 34.6215ZM175.221 37.6834C175.35 36.6691 175.438 35.6483 175.486 34.6215L165.497 34.1532C165.461 34.9178 165.396 35.6745 165.301 36.4236L175.221 37.6834ZM174.517 42.5562L175.209 37.7697L165.312 36.3373L164.62 41.1238L174.517 42.5562ZM173.102 47.8207C173.801 46.168 174.259 44.3922 174.52 42.5342L164.616 41.1458C164.457 42.2828 164.201 43.1942 163.893 43.9208L173.102 47.8207ZM169.199 52.7525C170.982 51.479 172.286 49.778 173.113 47.7939L163.882 43.9476C163.729 44.3148 163.563 44.4891 163.387 44.6152L169.199 52.7525ZM162.283 54.7124C164.61 54.7319 167.086 54.2621 169.199 52.7525L163.387 44.6152C163.541 44.5052 163.372 44.7212 162.367 44.7127L162.283 54.7124ZM151.322 29.1846H157.305V19.1846H151.322V29.1846ZM152.727 46.0265L156.253 25.0122L146.391 23.357L142.864 44.3714L152.727 46.0265ZM151.695 49.6892C152.186 48.5146 152.521 47.2789 152.729 46.009L142.862 44.3889C142.762 44.9944 142.621 45.4662 142.469 45.8311L151.695 49.6892ZM148.365 53.7117C149.896 52.7127 151 51.3211 151.682 49.7195L142.482 45.8008C142.492 45.7757 142.531 45.696 142.615 45.5941C142.7 45.4901 142.801 45.4011 142.902 45.3355L148.365 53.7117ZM142.893 55.0864C144.608 55.155 146.584 54.8728 148.364 53.7117L142.902 45.3355C143.142 45.179 143.34 45.1195 143.426 45.1002C143.504 45.083 143.472 45.1016 143.293 45.0944L142.893 55.0864ZM137.307 52.779C139.056 54.6407 141.363 55.0437 142.952 55.0884L143.234 45.0924C143.091 45.0884 143.191 45.0725 143.435 45.1564C143.702 45.248 144.158 45.4664 144.596 45.9323L137.307 52.779ZM135.23 48.1554C135.417 49.7409 136.022 51.3264 137.202 52.6638L144.701 46.0475C144.854 46.2206 144.972 46.4133 145.052 46.6027C145.13 46.787 145.154 46.9261 145.162 46.987L135.23 48.1554ZM135.27 44.6289C135.139 45.772 135.11 46.9187 135.219 48.0498L145.173 47.0927C145.142 46.7682 145.14 46.3334 145.205 45.769L135.27 44.6289ZM138.812 23.3618L135.306 44.3762L145.17 46.0218L148.676 25.0074L138.812 23.3618ZM137.782 29.1846H143.744V19.1846H137.782V29.1846ZM139.142 46.0159L142.711 25.0225L132.852 23.3466L129.283 44.34L139.142 46.0159ZM139.386 48.5743C139.163 47.9943 139.014 47.1149 139.176 45.7807L129.249 44.5752C128.935 47.1598 129.122 49.7374 130.048 52.1524L139.386 48.5743ZM140.294 49.675C139.865 49.3969 139.578 49.058 139.365 48.5215L130.068 52.2052C131.031 54.6358 132.647 56.6341 134.85 58.0635L140.294 49.675ZM142.672 50.1929C141.312 50.1646 140.609 49.876 140.262 49.6546L134.882 58.0838C137.166 59.5419 139.794 60.1351 142.464 60.1907L142.672 50.1929ZM145.832 49.5762C145.135 49.9373 144.126 50.2118 142.633 50.1922L142.503 60.1914C145.293 60.2279 147.993 59.7186 150.431 58.4562L145.832 49.5762ZM147.64 47.8954C147.174 48.647 146.593 49.1824 145.832 49.5762L150.431 58.4562C152.805 57.2265 154.729 55.4386 156.138 53.1671L147.64 47.8954ZM148.787 44.4499C148.574 45.9375 148.156 47.0567 147.63 47.913L156.149 53.1496C157.498 50.9548 158.311 48.4912 158.686 45.8641L148.787 44.4499ZM152.376 23.3458L148.807 44.3182L158.666 45.9958L162.235 25.0234L152.376 23.3458ZM130.915 43.9166C131.427 43.7362 131.927 43.5274 132.415 43.2893L128.028 34.3026C127.891 34.3695 127.745 34.431 127.588 34.4864L130.915 43.9166ZM133.19 35.7325C132.563 35.2655 131.893 34.8889 131.195 34.5945L127.309 43.8085C127.304 43.8064 127.266 43.7892 127.211 43.7488L133.19 35.7325ZM136.709 40.4567C136.015 38.5349 134.807 36.8905 133.113 35.6766L127.288 43.8048C127.298 43.8121 127.299 43.8136 127.294 43.8088C127.289 43.8038 127.283 43.797 127.278 43.79C127.272 43.7831 127.272 43.7814 127.276 43.7884C127.28 43.7956 127.29 43.8159 127.303 43.8532L136.709 40.4567ZM137.39 45.9772C137.531 44.1269 137.357 42.2512 136.709 40.4567L127.303 43.8531C127.383 44.074 127.474 44.4936 127.419 45.2185L137.39 45.9772ZM134.977 53.4293C136.489 51.1844 137.224 48.6061 137.395 45.9141L127.415 45.2816C127.334 46.5643 127.019 47.345 126.683 47.8432L134.977 53.4293ZM129.296 58.2721C131.62 57.1849 133.552 55.5573 134.984 53.4196L126.677 47.8529C126.29 48.4303 125.786 48.8741 125.058 49.2145L129.296 58.2721ZM121.899 59.7504C124.47 59.7874 126.961 59.3436 129.262 58.2879L125.093 49.1986C124.343 49.5425 123.363 49.7705 122.043 49.7515L121.899 59.7504ZM117.856 59.751H121.971V49.751H117.856V59.751ZM113.994 59.751H117.856V49.751H113.994V59.751ZM111.852 59.751H113.994V49.751H111.852V59.751ZM112.216 23.3319L106.926 53.8983L116.779 55.6037L122.069 25.0373L112.216 23.3319ZM125.993 19.2056L117.155 19.1846L117.131 29.1846L125.969 29.2056L125.993 19.2056ZM131.068 20.029C129.472 19.4972 127.798 19.2439 126.09 19.2067L125.872 29.2044C126.739 29.2232 127.402 29.3478 127.906 29.5158L131.068 20.029ZM135.576 22.6021C134.238 21.3881 132.679 20.5371 130.992 20.0045L127.981 29.5403C128.422 29.6795 128.682 29.8501 128.856 30.0077L135.576 22.6021ZM138.598 27.1469C137.971 25.4109 136.966 23.864 135.576 22.6021L128.856 30.0077C128.977 30.1174 129.092 30.2639 129.193 30.5433L138.598 27.1469ZM139.327 32.7195C139.442 30.8338 139.26 28.9102 138.577 27.0895L129.214 30.6007C129.287 30.7954 129.398 31.2511 129.346 32.1084L139.327 32.7195ZM137.22 39.117C138.516 37.1977 139.158 35.0215 139.323 32.78L129.35 32.048C129.29 32.8575 129.092 33.2845 128.933 33.5205L137.22 39.117ZM132.436 43.2786C134.379 42.3185 136.01 40.9201 137.228 39.1048L128.925 33.5327C128.715 33.8447 128.443 34.0978 128.007 34.3133L132.436 43.2786ZM124.736 41.9627C125.889 41.8541 127.059 41.5589 128.175 41.0008L123.703 32.0566C123.767 32.0245 123.815 32.009 123.837 32.003C123.858 31.9972 123.848 32.0021 123.798 32.0068L124.736 41.9627ZM120.917 41.9732L124.25 41.9847L124.285 31.9848L120.951 31.9733L120.917 41.9732ZM117.338 28.433L116.007 36.1203L125.861 37.8262L127.192 30.1389L117.338 28.433ZM125.759 24.3071L122.295 24.2861L122.235 34.2859L125.699 34.3069L125.759 24.3071ZM130.725 26.0565C129.142 24.6992 127.277 24.3599 125.911 24.3103L125.547 34.3037C125.721 34.31 125.017 34.3346 124.217 33.6491L130.725 26.0565ZM133.128 30.2921C132.842 28.7027 132.059 27.2001 130.725 26.0565L124.217 33.6491C123.974 33.4401 123.751 33.174 123.578 32.8636C123.408 32.5574 123.323 32.2739 123.285 32.0587L133.128 30.2921ZM133.16 33.7237C133.308 32.6467 133.344 31.4658 133.123 30.2696L123.289 32.0812C123.275 32.0074 123.28 31.9892 123.28 32.0413C123.28 32.0933 123.275 32.1982 123.253 32.3639L133.16 33.7237ZM131.611 37.9376C132.492 36.6149 132.965 35.1591 133.161 33.7156L123.251 32.3719C123.237 32.4788 123.221 32.5208 123.223 32.5144C123.225 32.5112 123.23 32.4971 123.241 32.4746C123.252 32.4519 123.268 32.4232 123.29 32.3906L131.611 37.9376ZM128.214 40.9809C129.621 40.2621 130.795 39.2083 131.656 37.8679L123.244 32.4604C123.288 32.3931 123.352 32.3125 123.439 32.2348C123.524 32.1573 123.605 32.1061 123.663 32.0765L128.214 40.9809ZM115.237 40.5715L113.804 48.845L123.658 50.5509L125.09 42.2774L115.237 40.5715ZM124.51 36.4412L120.183 36.4245L120.144 46.4244L124.471 46.4411L124.51 36.4412ZM130.142 39.2822C128.669 37.2067 126.473 36.5766 124.867 36.4553L124.114 46.427C124.046 46.4218 123.741 46.3917 123.326 46.1977C122.875 45.9872 122.379 45.6211 121.987 45.0697L130.142 39.2822ZM131.564 43.5024C131.499 42.0863 131.088 40.5711 130.097 39.2191L122.033 45.1327C121.657 44.6205 121.582 44.141 121.574 43.9565L131.564 43.5024ZM131.458 46.2259C131.589 45.2824 131.623 44.3324 131.557 43.3815L121.581 44.0774C121.598 44.3301 121.59 44.5837 121.554 44.8438L131.458 46.2259ZM130.118 50.1988C130.872 48.9213 131.297 47.5407 131.468 46.1443L121.543 44.9254C121.53 45.0294 121.514 45.0875 121.506 45.1104C121.499 45.1318 121.498 45.1288 121.508 45.1116L130.118 50.1988ZM126.972 53.4034C128.311 52.5938 129.391 51.479 130.16 50.1253L121.466 45.1851C121.492 45.1379 121.539 45.071 121.607 45.0005C121.676 44.9299 121.744 44.8786 121.798 44.8461L126.972 53.4034ZM122.411 54.7098C123.936 54.6589 125.542 54.2891 127.017 53.3761L121.754 44.8734C121.894 44.7865 122.014 44.7426 122.086 44.723C122.153 44.7045 122.158 44.7126 122.077 44.7153L122.411 54.7098ZM118.71 54.6979L122.223 54.7125L122.265 44.7126L118.752 44.698L118.71 54.6979Z" fill="white" mask="url(#path-1-outside-1_154_343)"/>
<rect x="9.86426" y="25.9141" width="74.3772" height="29.2822" fill="white"/>
<path d="M90.3295 24.1855H92.5968L96.9425 50.9731L110.567 24.1855H113.023L97.3203 54.7519H95.4729L90.3295 24.1855ZM89.5738 24.1855H91.6311L88.923 41.5471L86.6137 54.7519H84.2415L89.5738 24.1855ZM111.638 24.1855H113.737L108.426 54.7519H106.054L108.384 41.3581L111.638 24.1855Z" fill="#6D7887"/>
<path d="M84.2491 36.1724L83.1994 42.7854C82.9615 44.3529 82.5626 45.8854 82.0028 47.3829C81.4429 48.8805 80.7012 50.224 79.7775 51.4137C78.8538 52.6033 77.7201 53.541 76.3765 54.2268C75.033 54.9126 73.4515 55.2345 71.632 55.1925C69.9386 55.1505 68.546 54.7586 67.4543 54.0168C66.3767 53.2751 65.5509 52.3024 64.9771 51.0988C64.4033 49.8811 64.0464 48.5516 63.9065 47.11C63.7665 45.6685 63.7875 44.2269 63.9694 42.7854L65.0191 36.1515C65.257 34.6119 65.6559 33.0934 66.2157 31.5959C66.7896 30.0984 67.5383 28.7548 68.462 27.5652C69.3997 26.3615 70.5334 25.4168 71.863 24.731C73.2065 24.0453 74.774 23.7234 76.5655 23.7654C78.2729 23.8073 79.6725 24.1992 80.7642 24.941C81.8558 25.6827 82.6886 26.6554 83.2624 27.8591C83.8362 29.0627 84.1861 30.3853 84.312 31.8268C84.452 33.2684 84.431 34.7169 84.2491 36.1724ZM80.8271 42.7854L81.8768 36.0675C82.0168 34.9898 82.0657 33.8702 82.0238 32.7085C81.9818 31.5469 81.7788 30.4762 81.415 29.4965C81.0651 28.5029 80.4842 27.6911 79.6725 27.0613C78.8748 26.4315 77.7901 26.0956 76.4185 26.0536C74.963 26.0116 73.7104 26.2776 72.6607 26.8514C71.611 27.4112 70.7293 28.181 70.0155 29.1607C69.3018 30.1403 68.7349 31.239 68.3151 32.4566C67.8952 33.6602 67.5943 34.8849 67.4124 36.1305L66.3627 42.8274C66.2227 43.905 66.1737 45.0247 66.2157 46.1863C66.2717 47.3339 66.4747 48.4116 66.8245 49.4193C67.1884 50.413 67.7692 51.2317 68.567 51.8755C69.3787 52.5193 70.4634 52.8622 71.821 52.9042C73.2905 52.9462 74.5501 52.6873 75.5998 52.1274C76.6495 51.5536 77.5312 50.7769 78.245 49.7972C78.9587 48.8035 79.5186 47.7048 79.9244 46.5012C80.3443 45.2836 80.6452 44.045 80.8271 42.7854Z" fill="#6D7887"/>
<path d="M62.6543 36.1724L61.6047 42.7854C61.3667 44.3529 60.9679 45.8854 60.408 47.3829C59.8482 48.8805 59.1064 50.224 58.1827 51.4137C57.259 52.6033 56.1254 53.541 54.7818 54.2268C53.4382 54.9126 51.8567 55.2345 50.0373 55.1925C48.3438 55.1505 46.9513 54.7586 45.8596 54.0168C44.782 53.2751 43.9562 52.3024 43.3824 51.0988C42.8086 49.8811 42.4517 48.5516 42.3117 47.11C42.1718 45.6685 42.1928 44.2269 42.3747 42.7854L43.4244 36.1515C43.6623 34.6119 44.0612 33.0934 44.621 31.5959C45.1948 30.0984 45.9436 28.7548 46.8673 27.5652C47.805 26.3615 48.9386 25.4168 50.2682 24.731C51.6118 24.0453 53.1793 23.7234 54.9708 23.7654C56.6782 23.8073 58.0778 24.1992 59.1694 24.941C60.2611 25.6827 61.0938 26.6554 61.6676 27.8591C62.2415 29.0627 62.5914 30.3853 62.7173 31.8268C62.8573 33.2684 62.8363 34.7169 62.6543 36.1724ZM59.2324 42.7854L60.2821 36.0675C60.422 34.9898 60.471 33.8702 60.429 32.7085C60.387 31.5469 60.1841 30.4762 59.8202 29.4965C59.4703 28.5029 58.8895 27.6911 58.0778 27.0613C57.28 26.4315 56.1954 26.0956 54.8238 26.0536C53.3683 26.0116 52.1156 26.2776 51.066 26.8514C50.0163 27.4112 49.1346 28.181 48.4208 29.1607C47.707 30.1403 47.1402 31.239 46.7203 32.4566C46.3005 33.6602 45.9996 34.8849 45.8176 36.1305L44.768 42.8274C44.628 43.905 44.579 45.0247 44.621 46.1863C44.677 47.3339 44.8799 48.4116 45.2298 49.4193C45.5937 50.413 46.1745 51.2317 46.9723 51.8755C47.784 52.5193 48.8687 52.8622 50.2262 52.9042C51.6958 52.9462 52.9554 52.6873 54.0051 52.1274C55.0547 51.5536 55.9364 50.7769 56.6502 49.7972C57.364 48.8035 57.9238 47.7048 58.3297 46.5012C58.7496 45.2836 59.0505 44.045 59.2324 42.7854Z" fill="#6D7887"/>
<path d="M18.1006 40.0566H11.0258L11.3827 37.8522L17.2609 37.8732C18.4925 37.8732 19.5841 37.6353 20.5358 37.1595C21.5015 36.6836 22.2783 36.0048 22.8661 35.1231C23.4679 34.2274 23.8248 33.1567 23.9368 31.9111C24.0487 30.7915 23.9507 29.8328 23.6428 29.035C23.3489 28.2233 22.8381 27.6005 22.1103 27.1666C21.3966 26.7327 20.4588 26.4948 19.2972 26.4528L14.0279 26.4318L9.09442 54.7519H6.72217L12.0335 24.1855L19.3812 24.2065C20.5708 24.2345 21.6205 24.4305 22.5302 24.7944C23.4539 25.1582 24.2097 25.6761 24.7975 26.3479C25.3993 27.0197 25.8262 27.8384 26.0781 28.8041C26.344 29.7558 26.435 30.8335 26.351 32.0371C26.225 33.3247 25.8611 34.4793 25.2593 35.501C24.6715 36.5227 23.8878 37.3624 22.9081 38.0202C21.9284 38.664 20.8087 39.0839 19.5491 39.2798L18.1006 40.0566ZM15.3924 54.7519H7.60389L9.26237 52.5056L15.4974 52.5266C16.799 52.5266 17.9396 52.2467 18.9193 51.6869C19.899 51.1131 20.6828 50.3363 21.2706 49.3566C21.8724 48.3769 22.2433 47.2503 22.3832 45.9767C22.4812 44.969 22.4042 44.0243 22.1523 43.1426C21.9004 42.2469 21.4385 41.5261 20.7668 40.9803C20.109 40.4344 19.2202 40.1335 18.1006 40.0775L13.461 40.0566L13.9019 37.8522L20.011 37.8732L20.3049 38.692C21.4525 38.9159 22.3622 39.4058 23.034 40.1615C23.7198 40.9033 24.1957 41.792 24.4616 42.8277C24.7275 43.8494 24.8185 44.892 24.7345 45.9557C24.5806 47.6912 24.1047 49.2237 23.307 50.5533C22.5092 51.8828 21.4315 52.9185 20.074 53.6603C18.7304 54.402 17.1699 54.7659 15.3924 54.7519Z" fill="#6D7887"/>
<path d="M204.632 24.1846L206.732 37.8723L213.596 24.1846H220.356L208.81 43.9394L206.963 54.751H200.874L202.869 43.3515L198.334 24.1846H204.632Z" fill="#FF8C7D"/>
<path d="M183.007 54.751H177.443L178.367 49.6706L183.3 49.7125C184.966 49.7265 186.289 49.3836 187.268 48.6839C188.248 47.9841 188.983 47.0464 189.472 45.8707C189.976 44.6811 190.333 43.3375 190.543 41.84L191.236 37.0535C191.348 36.1718 191.425 35.2831 191.467 34.3874C191.509 33.4916 191.432 32.6659 191.236 31.9101C191.04 31.1544 190.648 30.5456 190.06 30.0837C189.486 29.6079 188.633 29.3489 187.499 29.307L181.747 29.286L182.65 24.1846L187.772 24.2056C189.605 24.2476 191.166 24.6254 192.454 25.3392C193.741 26.053 194.77 27.0117 195.54 28.2153C196.323 29.4189 196.848 30.7835 197.114 32.309C197.38 33.8345 197.408 35.437 197.198 37.1165L196.505 41.861C196.211 43.6664 195.715 45.3529 195.015 46.9204C194.315 48.4879 193.398 49.8595 192.265 51.0351C191.145 52.2108 189.815 53.1275 188.276 53.7853C186.736 54.4431 184.98 54.765 183.007 54.751ZM186.24 24.1846L180.949 54.751H174.945L180.235 24.1846H186.24Z" fill="#FF8C7D"/>
<path d="M162.031 54.751H156.468L157.392 49.6706L162.325 49.7125C163.991 49.7265 165.313 49.3836 166.293 48.6839C167.273 47.9841 168.008 47.0464 168.497 45.8707C169.001 44.6811 169.358 43.3375 169.568 41.84L170.261 37.0535C170.373 36.1718 170.45 35.2831 170.492 34.3874C170.534 33.4916 170.457 32.6659 170.261 31.9101C170.065 31.1544 169.673 30.5456 169.085 30.0837C168.511 29.6079 167.658 29.3489 166.524 29.307L160.772 29.286L161.675 24.1846L166.797 24.2056C168.63 24.2476 170.191 24.6254 171.478 25.3392C172.766 26.053 173.795 27.0117 174.564 28.2153C175.348 29.4189 175.873 30.7835 176.139 32.309C176.405 33.8345 176.433 35.437 176.223 37.1165L175.53 41.861C175.236 43.6664 174.739 45.3529 174.04 46.9204C173.34 48.4879 172.423 49.8595 171.29 51.0351C170.17 52.2108 168.84 53.1275 167.301 53.7853C165.761 54.4431 164.005 54.765 162.031 54.751ZM165.264 24.1846L159.974 54.751H153.97L159.26 24.1846H165.264Z" fill="#FF8C7D"/>
<path d="M151.322 24.1846H157.305L153.737 45.157C153.443 47.2143 152.827 49.0058 151.889 50.5313C150.951 52.0428 149.699 53.2044 148.131 54.0162C146.564 54.8279 144.709 55.2198 142.568 55.1918C140.553 55.1498 138.887 54.709 137.572 53.8692C136.256 53.0155 135.304 51.8469 134.717 50.3633C134.143 48.8658 133.975 47.1374 134.213 45.178L137.782 24.1846H143.744L140.238 45.199C140.14 46.0527 140.126 46.8434 140.196 47.5712C140.28 48.285 140.532 48.8798 140.952 49.3557C141.386 49.8175 142.099 50.0624 143.093 50.0904C144.143 50.1324 144.989 49.9435 145.633 49.5236C146.277 49.1037 146.76 48.5159 147.082 47.7602C147.404 46.9904 147.642 46.1367 147.795 45.199L151.322 24.1846Z" fill="#FF8C7D"/>
<path d="M124.427 41.4201H118.108L118.864 36.9695L123.777 37.0115C124.602 36.9975 125.323 36.8366 125.939 36.5287C126.569 36.2068 127.073 35.7519 127.45 35.1641C127.842 34.5763 128.094 33.8695 128.206 33.0438C128.304 32.33 128.304 31.7072 128.206 31.1754C128.108 30.6295 127.863 30.1887 127.471 29.8528C127.08 29.5169 126.499 29.335 125.729 29.307L122.265 29.286L117.856 54.751H111.852L117.143 24.1846L125.981 24.2056C127.268 24.2336 128.437 24.4225 129.487 24.7724C130.55 25.1083 131.46 25.6191 132.216 26.3049C132.972 26.9907 133.531 27.8374 133.895 28.8451C134.273 29.8528 134.42 31.0424 134.336 32.414C134.224 33.9395 133.804 35.2411 133.077 36.3188C132.363 37.3824 131.411 38.2082 130.222 38.796C129.046 39.3698 127.716 39.6987 126.233 39.7827L124.427 41.4201ZM121.971 54.751H113.994L117.185 49.6915L122.244 49.7125C123.084 49.6845 123.798 49.4886 124.385 49.1247C124.987 48.7608 125.463 48.271 125.813 47.6552C126.177 47.0394 126.408 46.3326 126.506 45.5349C126.59 44.933 126.611 44.3312 126.569 43.7294C126.541 43.1136 126.373 42.5958 126.065 42.1759C125.757 41.742 125.232 41.4971 124.49 41.4411L119.053 41.4201L119.872 36.9695L125.939 36.9905L126.968 38.733C128.297 38.789 129.375 39.1249 130.201 39.7407C131.04 40.3425 131.642 41.1472 132.006 42.1549C132.37 43.1626 132.503 44.3102 132.405 45.5978C132.279 47.5852 131.754 49.2647 130.83 50.6362C129.921 51.9938 128.703 53.0295 127.177 53.7433C125.652 54.4431 123.917 54.7789 121.971 54.751Z" fill="#FF8C7D"/>
<path fill-rule="evenodd" clip-rule="evenodd" d="M34.1802 18.6187L34.1705 18.6826L34.1587 18.6808C33.8551 21.0382 33.5995 22.8419 33.3524 24.4027H33.3593L33.2691 24.9217C33.1286 25.7853 32.9894 26.5808 32.8443 27.3665L28.4382 52.7228H40.665L40.2451 54.9691H28.0479H27.3761H25.6547L30.6704 26.2173C30.8815 24.798 31.1445 23.2951 31.4054 21.8047C31.643 20.447 31.8788 19.0997 32.0718 17.8355L32.0794 17.7861L25.6936 12.1541L31.3927 18.8627C29.8618 19.5477 28.1273 19.6555 26.5162 19.1659C24.8936 18.6796 23.4146 17.8098 22.2078 16.6323C21.001 15.4548 20.1032 14.0053 19.5926 12.4102C19.3886 11.7859 19.245 11.1442 19.1636 10.4937C19.152 10.4055 19.1365 10.2941 19.1185 10.1649C18.9732 9.12382 18.6672 6.93154 19.0101 6.51528C19.5676 5.82962 23.5048 6.65678 24.4016 6.85319C29.0631 7.88018 34.2189 10.5926 33.5084 16.177C33.4777 16.408 33.4159 16.6338 33.3244 16.8483L33.587 17.1056L33.9308 16.9498C33.9511 16.6241 34.0224 16.3037 34.1422 16C36.6369 9.78323 43.573 9.91055 49.0212 11.5189C50.0704 11.8249 54.646 13.2167 54.8322 14.251C54.9466 14.8895 53.323 17.0378 52.5785 18.023C52.4954 18.1329 52.4233 18.2283 52.3657 18.3056C51.905 18.937 51.3839 19.5231 50.8095 20.0559C47.8048 22.7904 43.7479 24.0133 39.688 23.1197C37.7323 22.7074 35.9938 21.6048 34.7996 20.0196L44.6185 16.2927L34.1802 18.6187Z" fill="#6D7887"/>
</g>
<defs>
<filter id="filter0_d_154_343" x="0.722168" y="0.248047" width="231.634" height="66.9482" filterUnits="userSpaceOnUse" color-interpolation-filters="sRGB">
<feFlood flood-opacity="0" result="BackgroundImageFix"/>
<feColorMatrix in="SourceAlpha" type="matrix" values="0 0 0 0 0 0 0 0 0 0 0 0 0 0 0 0 0 0 127 0" result="hardAlpha"/>
<feOffset dx="3" dy="3"/>
<feGaussianBlur stdDeviation="2"/>
<feComposite in2="hardAlpha" operator="out"/>
<feColorMatrix type="matrix" values="0 0 0 0 0 0 0 0 0 0 0 0 0 0 0 0 0 0 0.25 0"/>
<feBlend mode="normal" in2="BackgroundImageFix" result="effect1_dropShadow_154_343"/>
<feBlend mode="normal" in="SourceGraphic" in2="effect1_dropShadow_154_343" result="shape"/>
</filter>
</defs>
</svg>
